<svg version="1.2" xmlns="http://www.w3.org/2000/svg" viewBox="0 0 90 29" width="90" height="29"><style>.a{fill:#fff}.b{fill:none;stroke:#fff;stroke-miterlimit:10;stroke-width:.7}</style><path fill-rule="evenodd" class="a" d="m47.8 18.2c0 1.4-1.1 2.4-2.5 2.4-1.4 0-2.5-1-2.5-2.4 0-1.4 1.1-2.5 2.5-2.5 1.4 0 2.5 1.1 2.5 2.5zm-1.1 0c0-0.9-0.7-1.5-1.4-1.5-0.8 0-1.4 0.6-1.4 1.5 0 0.9 0.6 1.5 1.4 1.5 0.7 0 1.4-0.6 1.4-1.5zm-4.3 0c0 1.4-1.2 2.4-2.5 2.4-1.4 0-2.5-1-2.5-2.4 0-1.4 1.1-2.5 2.5-2.5 1.3 0 2.5 1.1 2.5 2.5zm-1.1 0c0-0.9-0.7-1.5-1.4-1.5-0.8 0-1.4 0.6-1.4 1.5 0 0.9 0.6 1.5 1.4 1.5 0.7 0 1.4-0.6 1.4-1.5zm-7.9-1.7h3.6q0 0.3 0 0.6c0 0.8-0.2 1.8-0.9 2.5-0.7 0.7-1.5 1-2.7 1-2.1 0-3.9-1.7-3.9-3.8 0-2.1 1.8-3.8 3.9-3.8 1.2 0 2 0.5 2.7 1.1l-0.8 0.7c-0.4-0.4-1-0.7-1.9-0.7-1.5 0-2.7 1.2-2.7 2.7 0 1.6 1.2 2.8 2.7 2.8 1 0 1.6-0.4 2-0.8q0.4-0.4 0.5-1.3h-2.5v-1zm26.4 0.8l0.1 0.3-3.3 1.3q0.4 0.8 1.2 0.8c0.5 0 0.9-0.3 1.2-0.7l0.8 0.5c-0.2 0.4-0.9 1.1-2 1.1-1.4 0-2.5-1-2.5-2.4 0-1.5 1.1-2.5 2.4-2.5 1.2 0 1.9 1 2.1 1.6zm-1.2-0.1c-0.1-0.3-0.5-0.5-0.9-0.5-0.5 0-1.3 0.5-1.3 1.4zm-4.9-3.9h1.1v7.2h-1.1zm-1.8 2.6h1.1v4.4c0 1.8-1.1 2.5-2.4 2.5-1.2 0-1.9-0.8-2.2-1.4l1-0.4c0.1 0.4 0.5 0.9 1.2 0.9 0.8 0 1.3-0.5 1.3-1.5v-0.3c-0.3 0.3-0.7 0.5-1.3 0.5-1.2 0-2.4-1-2.4-2.4 0-1.4 1.2-2.5 2.4-2.5 0.6 0 1 0.3 1.3 0.6zm0.1 2.3c0-0.9-0.6-1.5-1.3-1.5-0.8 0-1.4 0.6-1.4 1.5 0 0.8 0.6 1.5 1.4 1.5 0.7 0 1.3-0.6 1.3-1.5zm12.9-4.9c1.2 0 2.4 0.8 2.4 2.2 0 1.4-1.2 2.3-2.4 2.3h-1.6v2.7h-1v-7.2h2.6zm1.3 2.2c0-0.5-0.5-1.2-1.3-1.2h-1.6v2.5h1.6c0.8 0 1.3-0.7 1.3-1.3zm5.4 0.2c1.2 0 2.2 0.7 2.2 2v2.8h-1v-0.6h-0.1c-0.2 0.4-0.6 0.7-1.4 0.7-0.9 0-1.8-0.6-1.8-1.6 0-1 1.1-1.6 2.1-1.6 0.5 0 1 0.2 1.2 0.3v-0.1c-0.1-0.6-0.6-0.9-1.2-0.9-0.4 0-0.8 0.1-1 0.5l-0.9-0.4c0.3-0.7 1.1-1.1 1.9-1.1zm1.2 2.8c-0.3-0.1-0.6-0.2-1-0.2-0.6 0-1.2 0.2-1.2 0.8 0 0.4 0.5 0.6 0.9 0.6 0.6 0 1.2-0.5 1.3-1.2zm6-2.6l-3 6.8h-1.1l1.1-2.5-1.9-4.3h1.1l1.3 3.1h0.1l1.2-3.1zm-11-2.6h1.1v7.2h-1.1z"/><path class="a" d="m20.7 11.4l-6.7-3.8q-0.4-0.3-0.9-0.3c-0.6 0-1.2 0.4-1.5 1h0.1l6.1 6zm-9.3-2.5q0 0.1 0 0.1v11.5q0 0 0 0.1l5.9-5.9-5.9-5.8zm0.2 12.3c0.3 0.5 0.8 0.9 1.5 0.9q0.5 0 0.8-0.2h0.1l6.7-3.8-3-3-6.1 6v0.1zm9.6-3.4l2.7-1.6c0.5-0.3 0.9-0.8 0.9-1.5 0-0.6-0.3-1.1-0.9-1.4l-2.7-1.6-3.1 3 3.1 3.1z"/><path fill-rule="evenodd" class="a" d="m29.8 7.1h1.2q0.7 0 1.1 0.5 0.5 0.4 0.5 1.1v0.5q0 0.7-0.5 1.1-0.4 0.4-1.1 0.4h-1.2zm0.6 3.2h0.6q0.4 0 0.7-0.3 0.3-0.3 0.3-0.8v-0.5q0-0.5-0.3-0.8-0.3-0.3-0.7-0.3h-0.6z"/><path class="a" d="m33.8 7.4h-0.6v-0.5h0.6zm0 3.3h-0.6v-2.7h0.6z"/><path class="a" d="m36 10q0-0.1-0.1-0.2-0.1-0.1-0.4-0.2-0.5-0.1-0.8-0.3-0.2-0.2-0.2-0.5 0-0.3 0.3-0.5 0.3-0.3 0.7-0.3 0.5 0 0.8 0.3 0.3 0.2 0.3 0.6h-0.6q0-0.2-0.1-0.3-0.2-0.1-0.4-0.1-0.2 0-0.3 0.1-0.1 0.1-0.1 0.2 0 0.1 0.1 0.2 0.1 0.1 0.4 0.2 0.5 0.1 0.8 0.3 0.2 0.2 0.2 0.5 0 0.3-0.3 0.6-0.3 0.2-0.8 0.2-0.5 0-0.8-0.3-0.3-0.2-0.3-0.6h0.6q0 0.2 0.2 0.3 0.1 0.1 0.3 0.1 0.3 0 0.4 0 0.1-0.1 0.1-0.3z"/><path fill-rule="evenodd" class="a" d="m39.6 9.5q0 0.6-0.3 0.9-0.3 0.4-0.8 0.4-0.2 0-0.4-0.1-0.2-0.1-0.3-0.2v1.3h-0.6v-3.7h0.5l0.1 0.3q0.1-0.2 0.3-0.3 0.2-0.1 0.4-0.1 0.5 0 0.8 0.4 0.3 0.4 0.3 1v0.1zm-0.6-0.1q0-0.4-0.2-0.6-0.2-0.3-0.5-0.3-0.2 0-0.3 0.1-0.1 0.1-0.2 0.2v1.2q0.1 0.2 0.2 0.2 0.1 0.1 0.3 0.1 0.3 0 0.5-0.2 0.2-0.2 0.2-0.6z"/><path fill-rule="evenodd" class="a" d="m40 9.4q0-0.6 0.3-1 0.3-0.4 0.9-0.4 0.6 0 0.9 0.4 0.4 0.4 0.4 1 0 0.6-0.4 1-0.3 0.4-0.9 0.4-0.6 0-0.9-0.4-0.3-0.4-0.3-1zm0.6 0.1q0 0.4 0.1 0.6 0.2 0.3 0.5 0.3 0.4 0 0.5-0.3 0.2-0.2 0.2-0.6v-0.1q0-0.4-0.2-0.6-0.2-0.3-0.5-0.3-0.3 0-0.5 0.3-0.1 0.2-0.1 0.6v0.1z"/><path class="a" d="m43.6 8.1v0.3q0.1-0.2 0.3-0.3 0.2-0.1 0.5-0.1 0.4 0 0.6 0.3 0.3 0.2 0.3 0.8v1.6h-0.6v-1.6q0-0.3-0.1-0.5-0.2-0.1-0.4-0.1-0.2 0-0.4 0.1-0.1 0.1-0.2 0.2v1.9h-0.6v-2.6h0.6z"/><path class="a" d="m46.6 7.4h-0.6v-0.5h0.6zm0 3.3h-0.6v-2.7h0.6z"/><path fill-rule="evenodd" class="a" d="m49.6 9.5q0 0.6-0.2 0.9-0.3 0.4-0.8 0.4-0.3 0-0.5-0.1-0.2-0.1-0.3-0.3l-0.1 0.4h-0.4v-3.9h0.6v1.5q0.1-0.2 0.3-0.3 0.1-0.1 0.4-0.1 0.5 0 0.8 0.4 0.2 0.4 0.2 1zm-0.6 0q0-0.4-0.1-0.7-0.2-0.2-0.5-0.2-0.2 0-0.3 0-0.2 0.1-0.2 0.3v1.1q0 0.2 0.2 0.3 0.1 0.1 0.3 0.1 0.3 0 0.5-0.3 0.1-0.2 0.1-0.6z"/><path class="a" d="m50.8 10.7h-0.6v-3.8h0.6z"/><path fill-rule="evenodd" class="a" d="m52.6 10.8q-0.5 0-0.9-0.4-0.3-0.3-0.3-0.9v-0.1q0-0.6 0.3-1 0.4-0.4 0.9-0.4 0.5 0 0.8 0.3 0.3 0.4 0.3 0.9v0.4h-1.7q0 0.3 0.2 0.5 0.2 0.2 0.5 0.2 0.2 0 0.4 0 0.2-0.1 0.4-0.2l0.2 0.4q-0.2 0.1-0.5 0.2-0.2 0.1-0.6 0.1zm0-2.3q-0.3 0-0.4 0.2-0.1 0.1-0.2 0.4h1.1q0-0.3-0.1-0.4-0.1-0.2-0.4-0.2z"/><path fill-rule="evenodd" class="a" d="m56.6 10.8q-0.6 0-0.9-0.4-0.3-0.3-0.3-0.9v-0.1q0-0.6 0.3-1 0.3-0.4 0.9-0.4 0.5 0 0.8 0.3 0.3 0.4 0.3 0.9v0.4h-1.7q0 0.3 0.2 0.5 0.1 0.2 0.5 0.2 0.2 0 0.4 0 0.2-0.1 0.3-0.2l0.2 0.4q-0.1 0.1-0.4 0.2-0.2 0.1-0.6 0.1zm0-2.3q-0.3 0-0.4 0.2-0.2 0.1-0.2 0.4h1.1q0-0.3-0.2-0.4-0.1-0.2-0.3-0.2z"/><path class="a" d="m58.7 8.1v0.3q0.2-0.2 0.4-0.3 0.2-0.1 0.4-0.1 0.5 0 0.7 0.3 0.2 0.2 0.2 0.8v1.6h-0.6v-1.6q0-0.3-0.1-0.5-0.1-0.1-0.4-0.1-0.2 0-0.3 0.1-0.1 0.1-0.2 0.2v1.9h-0.6v-2.6h0.5z"/><path class="b" d="m75.5 28.4h-60.7c-7.5 0-13.5-6.1-13.5-13.6 0-7.4 6-13.5 13.5-13.5h60.7c7.5 0 13.5 6.1 13.5 13.5 0 7.5-6 13.6-13.5 13.6z"/></svg>