<svg version="1.2" xmlns="http://www.w3.org/2000/svg" viewBox="0 0 122 39" width="122" height="39"><style>.a{fill:none;stroke:#000;stroke-miterlimit:10;stroke-width:.9}</style><g style="opacity:.3"><path fill-rule="evenodd" d="m64.7 24.1c0 1.9-1.5 3.3-3.4 3.3-1.9 0-3.4-1.4-3.4-3.3 0-2 1.5-3.4 3.4-3.4 1.9 0 3.4 1.4 3.4 3.4zm-1.5 0c0-1.2-0.9-2.1-1.9-2.1-1 0-1.9 0.9-1.9 2.1 0 1.2 0.9 2 1.9 2 1 0 1.9-0.8 1.9-2zm-5.9 0c0 1.9-1.6 3.3-3.5 3.3-1.8 0-3.4-1.4-3.4-3.3 0-2 1.6-3.4 3.4-3.4 1.9 0 3.5 1.4 3.5 3.4zm-1.5 0c0-1.2-0.9-2.1-2-2.1-1 0-1.9 0.9-1.9 2.1 0 1.2 0.9 2 1.9 2 1.1 0 2-0.8 2-2zm-10.8-2.4h4.9q0 0.4 0 0.9c0 1.1-0.3 2.4-1.2 3.4-0.9 0.9-2.1 1.4-3.7 1.4-2.9 0-5.4-2.3-5.4-5.2 0-2.9 2.5-5.2 5.4-5.2 1.6 0 2.8 0.6 3.6 1.4l-1 1c-0.6-0.5-1.5-1-2.6-1-2.1 0-3.8 1.7-3.8 3.8 0 2.1 1.7 3.8 3.8 3.8 1.4 0 2.2-0.5 2.7-1q0.6-0.6 0.7-1.8h-3.4v-1.5zm36.2 1.2l0.2 0.3-4.6 1.9q0.5 1 1.7 1c0.7 0 1.2-0.3 1.6-0.9l1.2 0.8c-0.4 0.5-1.3 1.4-2.8 1.4-2 0-3.4-1.4-3.4-3.3 0-2 1.4-3.4 3.2-3.4 1.8 0 2.6 1.4 2.9 2.2zm-1.6-0.2c-0.2-0.4-0.7-0.7-1.2-0.7-0.8 0-1.9 0.7-1.8 2zm-6.8-5.4h1.5v9.9h-1.5zm-2.4 3.6h1.4v6c0 2.5-1.5 3.5-3.2 3.5-1.7 0-2.7-1.1-3-2l1.3-0.5c0.2 0.5 0.8 1.2 1.7 1.2 1.1 0 1.8-0.7 1.8-2v-0.5h-0.1c-0.3 0.4-0.9 0.8-1.8 0.8-1.7 0-3.2-1.5-3.2-3.4 0-1.9 1.5-3.3 3.2-3.3 0.9 0 1.5 0.3 1.8 0.7h0.1zm0.1 3.2c0-1.2-0.8-2.1-1.8-2.1-1 0-1.9 0.9-1.9 2.1 0 1.1 0.9 2 1.9 2 1 0 1.8-0.8 1.8-2zm17.7-6.8c1.6 0 3.3 1.2 3.3 3.1 0 1.9-1.7 3.1-3.3 3.1h-2.1v3.7h-1.5v-9.9h3.6zm1.8 3.1c0-0.8-0.7-1.7-1.8-1.7h-2.1v3.4h2.1c1.1 0 1.8-0.9 1.8-1.7zm7.4 0.3c1.7 0 3.1 1 3.1 2.7v3.8h-1.5v-0.8c-0.4 0.6-0.9 1-1.9 1-1.3 0-2.5-0.8-2.5-2.2 0-1.4 1.4-2.2 2.9-2.2 0.7 0 1.3 0.2 1.5 0.4v-0.1c0-0.8-0.8-1.3-1.5-1.3-0.6 0-1.1 0.2-1.4 0.7l-1.3-0.5c0.4-1 1.5-1.5 2.6-1.5zm1.6 3.8c-0.4-0.1-0.7-0.3-1.3-0.3-0.8 0-1.6 0.3-1.6 1.1 0 0.6 0.7 0.8 1.1 0.8 0.9 0 1.7-0.6 1.8-1.6zm8.4-3.6l-4.1 9.3h-1.6l1.5-3.3-2.6-6h1.6l1.7 4.3h0.1l1.7-4.3zm-15.1-3.6h1.5v9.9h-1.5z"/><path  d="m27.5 14.8l-9.2-5.3q-0.5-0.3-1.2-0.3c-0.9 0-1.7 0.5-2.1 1.2l0.1 0.1 8.3 8.3zm-12.6-3.5q0 0.1 0 0.1v15.8q0 0.1 0 0.1l8-8-8-8zm0.2 16.9c0.4 0.8 1.2 1.3 2 1.3q0.7 0 1.2-0.3l9.3-5.3-4.1-4-8.3 8.2-0.1 0.1zm13.2-4.7l3.7-2.2c0.8-0.3 1.2-1.1 1.2-2 0-0.8-0.4-1.6-1.2-2l-3.7-2.1-4.2 4.1 4.2 4.2z"/><path fill-rule="evenodd" d="m40 8.9h1.7q0.9 0 1.5 0.6 0.6 0.6 0.6 1.5v0.8q0 0.9-0.6 1.5-0.6 0.6-1.5 0.6h-1.7zm0.8 4.3h0.9q0.6 0 0.9-0.4 0.4-0.4 0.4-1.1v-0.7q0-0.7-0.4-1.1-0.3-0.4-0.9-0.4h-0.9z"/><path  d="m45.5 9.3h-0.8v-0.8h0.8zm0 4.6h-0.8v-3.7h0.8z"/><path  d="m48.6 12.9q0-0.2-0.2-0.4-0.2-0.1-0.6-0.2-0.7-0.1-1-0.4-0.4-0.2-0.4-0.7 0-0.4 0.4-0.8 0.4-0.3 1.1-0.3 0.6 0 1.1 0.3 0.4 0.4 0.3 0.9h-0.8q0-0.2-0.1-0.4-0.2-0.2-0.5-0.2-0.3 0-0.5 0.2-0.1 0.1-0.1 0.3 0 0.2 0.1 0.3 0.2 0.1 0.6 0.2 0.7 0.1 1.1 0.4 0.3 0.3 0.3 0.7 0 0.5-0.4 0.8-0.4 0.3-1.1 0.3-0.7 0-1.2-0.3-0.4-0.4-0.4-0.9h0.8q0 0.3 0.3 0.5 0.2 0.1 0.5 0.1 0.3 0 0.5-0.1 0.2-0.1 0.2-0.4z"/><path fill-rule="evenodd" d="m53.4 12.1q0 0.8-0.4 1.3-0.3 0.5-1 0.5-0.3 0-0.6-0.1-0.2-0.1-0.4-0.3v1.8h-0.8v-5.1h0.7v0.4q0.2-0.2 0.5-0.4 0.2-0.1 0.6-0.1 0.7 0 1 0.5 0.4 0.6 0.4 1.5zm-0.8 0q0-0.6-0.2-1-0.2-0.3-0.7-0.3-0.2 0-0.4 0.1-0.2 0.1-0.3 0.3v1.7q0.1 0.2 0.3 0.3 0.2 0.1 0.4 0.1 0.5 0 0.7-0.3 0.2-0.4 0.2-0.9z"/><path fill-rule="evenodd" d="m54 12q0-0.8 0.5-1.4 0.4-0.5 1.2-0.5 0.8 0 1.3 0.5 0.4 0.6 0.4 1.4v0.1q0 0.8-0.4 1.3-0.5 0.5-1.3 0.5-0.8 0-1.2-0.5-0.5-0.5-0.5-1.3zm0.8 0q0 0.6 0.2 0.9 0.3 0.3 0.7 0.3 0.5 0 0.7-0.3 0.2-0.3 0.2-0.9 0-0.6-0.2-0.9-0.3-0.4-0.7-0.4-0.4 0-0.7 0.4-0.2 0.3-0.2 0.9z"/><path  d="m58.9 10.2l0.1 0.5q0.1-0.3 0.4-0.4 0.3-0.2 0.6-0.2 0.6 0 1 0.4 0.3 0.3 0.3 1.1v2.3h-0.9v-2.3q0-0.5-0.1-0.6-0.2-0.2-0.5-0.2-0.3 0-0.5 0.1-0.2 0.1-0.3 0.3v2.7h-0.8v-3.7h0.7z"/><path  d="m63.1 9.3h-0.9v-0.8h0.9zm0 4.6h-0.9v-3.7h0.9z"/><path fill-rule="evenodd" d="m67.3 12.1q0 0.9-0.4 1.3-0.4 0.5-1.1 0.5-0.3 0-0.6-0.1-0.3-0.1-0.4-0.4l-0.1 0.5h-0.7v-5.4h0.8v2.1q0.2-0.2 0.4-0.4 0.3-0.1 0.6-0.1 0.7 0 1.1 0.5 0.4 0.6 0.4 1.5zm-0.9-0.1q0-0.6-0.2-0.9-0.2-0.4-0.6-0.4-0.3 0-0.5 0.1-0.2 0.2-0.3 0.4v1.5q0.1 0.2 0.3 0.4 0.2 0.1 0.5 0.1 0.4 0 0.6-0.3 0.2-0.3 0.2-0.8v-0.1z"/><path  d="m68.9 13.9h-0.9v-5.4h0.9z"/><path fill-rule="evenodd" d="m71.4 13.9q-0.8 0-1.3-0.5-0.4-0.5-0.4-1.3v-0.1q0-0.8 0.4-1.4 0.5-0.5 1.2-0.5 0.8 0 1.2 0.5 0.3 0.4 0.3 1.2v0.4h-2.3v0.1q0 0.4 0.3 0.7 0.2 0.3 0.7 0.3 0.3 0 0.5-0.1 0.3-0.1 0.5-0.2l0.3 0.5q-0.2 0.2-0.6 0.3-0.3 0.1-0.8 0.1zm-0.1-3.1q-0.3 0-0.5 0.2-0.2 0.2-0.3 0.6h0.1 1.4q0-0.4-0.2-0.6-0.1-0.2-0.5-0.2z"/><path fill-rule="evenodd" d="m76.9 13.9q-0.9 0-1.3-0.5-0.5-0.5-0.5-1.3v-0.1q0-0.8 0.5-1.4 0.4-0.5 1.2-0.5 0.7 0 1.1 0.5 0.4 0.4 0.4 1.2v0.4h-2.3v0.1q0 0.4 0.2 0.7 0.3 0.3 0.7 0.3 0.4 0 0.6-0.1 0.3-0.1 0.5-0.2l0.2 0.5q-0.2 0.2-0.5 0.3-0.4 0.1-0.8 0.1zm-0.1-3.1q-0.4 0-0.5 0.2-0.2 0.2-0.3 0.6h1.5q0-0.4-0.2-0.6-0.2-0.2-0.5-0.2z"/><path  d="m79.7 10.2l0.1 0.5q0.2-0.3 0.4-0.4 0.3-0.2 0.7-0.2 0.6 0 0.9 0.4 0.3 0.3 0.3 1.1v2.3h-0.8v-2.3q0-0.5-0.2-0.6-0.2-0.2-0.5-0.2-0.3 0-0.5 0.1-0.2 0.1-0.3 0.3v2.7h-0.8v-3.7h0.7z"/><path class="a" d="m102.9 38.1h-83.6c-10.2 0-18.5-8.4-18.5-18.6 0-10.2 8.3-18.6 18.5-18.6h83.6c10.2 0 18.5 8.4 18.5 18.6 0 10.2-8.3 18.6-18.5 18.6z"/></g></svg>