<svg version="1.2" xmlns="http://www.w3.org/2000/svg" viewBox="0 0 123 39" width="123" height="39"><style>.a{fill:none;stroke:#000;stroke-miterlimit:10;stroke-width:.9}.b{fill:#1d1d1b}.c{fill:#010202}.d{fill:#fff}</style><g style="opacity:.3"><path class="a" d="m103.4 38.1h-83.6c-10.2 0-18.5-8.4-18.5-18.6 0-10.2 8.3-18.6 18.5-18.6h83.6c10.2 0 18.5 8.4 18.5 18.6 0 10.2-8.3 18.6-18.5 18.6z"/><path fill-rule="evenodd" class="b" d="m39.6 8.5h1.7c0.6 0 1.2 0.2 1.6 0.6 0.4 0.4 0.6 1 0.6 1.6v0.8c0 0.5-0.2 1.1-0.6 1.5-0.4 0.4-1 0.7-1.6 0.6h-1.7zm0.8 4.5h0.9c0.4 0 0.7-0.1 1-0.4 0.2-0.3 0.4-0.7 0.3-1.1v-0.8c0.1-0.4-0.1-0.8-0.3-1-0.3-0.3-0.6-0.5-1-0.5h-0.9z"/><path class="b" d="m45.3 8.9h-0.9v-0.8h0.9zm0 4.8h-0.9v-3.9h0.9z"/><path class="b" d="m48.5 12.6q0-0.2-0.2-0.3-0.3-0.2-0.7-0.3-0.5-0.1-1-0.4c-0.2-0.1-0.4-0.4-0.4-0.7 0-0.3 0.2-0.6 0.5-0.8 0.3-0.3 0.6-0.4 1-0.4 0.4 0 0.8 0.1 1.2 0.4 0.2 0.2 0.4 0.5 0.4 0.8v0.1h-0.9q0-0.3-0.2-0.4c-0.2-0.3-0.6-0.3-0.9-0.1q-0.2 0.2-0.2 0.4 0 0.2 0.2 0.3 0.2 0.1 0.6 0.2 0.6 0.1 1.1 0.4c0.2 0.2 0.3 0.4 0.3 0.7 0 0.4-0.1 0.7-0.4 0.9-0.3 0.2-0.7 0.3-1.1 0.3-0.5 0-0.9-0.1-1.2-0.4-0.3-0.2-0.5-0.5-0.5-0.9h0.1 0.8c0 0.2 0 0.4 0.2 0.5q0.3 0.2 0.6 0.2 0.2 0 0.5-0.2 0.2-0.1 0.2-0.3z"/><path fill-rule="evenodd" class="b" d="m53.5 11.9c0 0.4-0.1 0.9-0.4 1.3-0.3 0.3-0.7 0.5-1.1 0.5q-0.3 0-0.6-0.1-0.3-0.1-0.4-0.3v1.8h-0.9v-5.3h0.7l0.1 0.5q0.2-0.3 0.5-0.4 0.3-0.2 0.6-0.2c0.4 0 0.8 0.2 1.1 0.6 0.3 0.4 0.4 1 0.4 1.5zm-0.9 0q0-0.5-0.2-1c-0.1-0.2-0.4-0.4-0.7-0.4q-0.2 0-0.4 0.2-0.2 0.1-0.3 0.3v1.7q0.1 0.2 0.3 0.3 0.2 0.1 0.4 0.1c0.3 0 0.6-0.1 0.7-0.3q0.2-0.4 0.2-0.9z"/><path fill-rule="evenodd" class="b" d="m54.1 11.7c0-0.5 0.1-1 0.5-1.4 0.3-0.4 0.8-0.6 1.3-0.6 0.5 0 0.9 0.2 1.3 0.6 0.3 0.4 0.5 0.9 0.4 1.4v0.1c0.1 0.5-0.1 1-0.4 1.4-0.7 0.7-1.9 0.7-2.6 0q0 0 0 0c-0.4-0.4-0.5-0.9-0.5-1.4zm0.9 0q-0.1 0.5 0.2 0.9c0.3 0.4 0.8 0.5 1.2 0.2q0.1 0 0.2-0.2 0.2-0.4 0.2-0.9 0-0.5-0.2-0.9c-0.2-0.3-0.5-0.4-0.7-0.4-0.3 0-0.6 0.1-0.7 0.4q-0.3 0.4-0.2 0.9z"/><path class="b" d="m59.2 9.8v0.6q0.2-0.3 0.5-0.5 0.3-0.2 0.7-0.2c0.3 0 0.7 0.1 0.9 0.4 0.3 0.3 0.4 0.7 0.4 1.2v2.3h-0.9v-2.3q0-0.4-0.2-0.7-0.2-0.2-0.5-0.2-0.3 0-0.5 0.1-0.2 0.1-0.3 0.3v2.8h-0.9v-3.8z"/><path class="b" d="m63.5 8.9h-0.9v-0.8h0.9zm0 4.8h-0.9v-3.9h0.9z"/><path fill-rule="evenodd" class="b" d="m67.9 11.9c0 0.4-0.1 0.9-0.4 1.3-0.3 0.3-0.7 0.5-1.1 0.5q-0.4 0-0.7-0.1-0.3-0.2-0.4-0.5l-0.1 0.5h-0.7v-5.5h0.8v2.1q0.2-0.2 0.5-0.3 0.2-0.2 0.5-0.2c0.5 0 0.9 0.2 1.2 0.6 0.3 0.4 0.4 1 0.4 1.5zm-0.9-0.1q0-0.5-0.2-1c-0.1-0.2-0.4-0.3-0.7-0.3q-0.2 0-0.5 0.1-0.2 0.1-0.3 0.4v1.6q0.1 0.2 0.3 0.3 0.3 0.2 0.5 0.1c0.3 0.1 0.5-0.1 0.7-0.3q0.2-0.4 0.2-0.8v-0.1z"/><path class="b" d="m69.5 13.6h-0.8v-5.5h0.8z"/><path fill-rule="evenodd" class="b" d="m72.2 13.7c-0.5 0-1-0.2-1.4-0.5-0.3-0.4-0.5-0.9-0.4-1.4v-0.1c-0.1-0.5 0.1-1 0.4-1.4 0.3-0.4 0.8-0.6 1.3-0.6 0.4 0 0.9 0.2 1.2 0.5 0.2 0.4 0.4 0.8 0.4 1.3v0.5h-2.4q0 0.4 0.2 0.7c0.2 0.2 0.4 0.3 0.7 0.3q0.3 0 0.6-0.1 0.3 0 0.5-0.2l0.3 0.6q-0.3 0.2-0.6 0.3-0.4 0.1-0.8 0.1zm-0.1-3.3c-0.2 0-0.4 0.1-0.6 0.3q-0.2 0.3-0.2 0.6h1.5q0-0.4-0.2-0.6c-0.1-0.2-0.3-0.3-0.5-0.3z"/><path fill-rule="evenodd" class="b" d="m77.8 13.7c-0.5 0-1-0.2-1.3-0.5-0.3-0.4-0.5-0.9-0.5-1.4v-0.1c0-0.5 0.2-1 0.5-1.4 0.3-0.4 0.8-0.6 1.2-0.6 0.5 0 0.9 0.2 1.2 0.5 0.3 0.4 0.4 0.8 0.4 1.3v0.5h-2.4q0 0.4 0.3 0.7c0.1 0.2 0.4 0.3 0.7 0.3q0.3 0 0.6-0.1 0.3 0 0.5-0.2l0.3 0.6q-0.3 0.2-0.6 0.3-0.4 0.1-0.9 0.1zm-0.1-3.3c-0.2 0-0.4 0.1-0.5 0.3q-0.2 0.3-0.3 0.6h0.1 1.5q0-0.4-0.2-0.6c-0.1-0.2-0.3-0.3-0.6-0.3z"/><path class="b" d="m80.8 9.8l0.1 0.6q0.2-0.3 0.4-0.5 0.3-0.2 0.7-0.2c0.3 0 0.7 0.1 0.9 0.4 0.3 0.3 0.4 0.7 0.4 1.2v2.3h-0.9v-2.3q0-0.4-0.2-0.7-0.2-0.2-0.5-0.2-0.2 0-0.5 0.1-0.2 0.1-0.3 0.3v2.8h-0.9v-3.8z"/><path fill-rule="evenodd" class="c" d="m39.5 27.8l3.6-9.6h1.5l3.6 9.6h-1.3l-0.9-2.5h-4.3l-0.9 2.5zm6.2-3.5l-1.8-4.8-1.7 4.8zm5.1 2.4v3.8h-1.2v-9.9h1.2v1.1q0.3-0.6 0.9-0.9 0.7-0.4 1.4-0.4c0.8 0 1.6 0.4 2.1 1.1 0.6 0.8 0.9 1.7 0.8 2.7 0.1 1-0.2 2-0.8 2.8-0.5 0.6-1.3 1-2.1 1q-0.7 0-1.4-0.3-0.6-0.4-0.9-1zm4-2.5c0-0.7-0.1-1.4-0.5-2-0.4-0.5-0.9-0.8-1.5-0.8-0.6 0-1.2 0.3-1.5 0.8-0.4 0.6-0.6 1.3-0.5 2-0.1 0.7 0.1 1.5 0.5 2.1 0.3 0.4 0.9 0.7 1.5 0.7 0.6 0 1.1-0.3 1.5-0.7 0.4-0.6 0.5-1.4 0.5-2.1zm4.3 6.3h-1.2v-9.9h1.2v1.1q0.4-0.6 1-0.9 0.6-0.4 1.3-0.4c0.9 0 1.7 0.4 2.1 1.1 0.6 0.8 0.9 1.7 0.9 2.7 0 1-0.3 2-0.9 2.8-0.4 0.6-1.2 1-2.1 1q-0.7 0-1.3-0.3-0.6-0.4-1-1zm3.5-8.3c-0.3-0.5-0.9-0.8-1.5-0.8-0.6 0-1.1 0.3-1.4 0.8-0.4 0.6-0.6 1.3-0.6 2 0 0.7 0.2 1.4 0.6 2.1 0.3 0.4 0.8 0.7 1.4 0.7 0.6 0 1.2-0.3 1.5-0.7 0.4-0.7 0.6-1.4 0.5-2.1 0.1-0.7-0.1-1.4-0.5-2zm10.3 1.7h-2.1v-1.1h3.4v4.1q-0.8 0.5-1.7 0.8-0.9 0.3-1.9 0.3c-1.3 0.1-2.6-0.4-3.5-1.3-0.9-1-1.4-2.3-1.3-3.7-0.1-1.3 0.4-2.6 1.3-3.6 0.9-1 2.2-1.4 3.5-1.4q0.9 0 1.7 0.3 0.9 0.2 1.6 0.7v1.3q-0.7-0.6-1.5-0.9-0.8-0.3-1.7-0.3c-1-0.1-2 0.3-2.7 1-0.6 0.8-0.9 1.9-0.8 2.9-0.1 1.1 0.2 2.1 0.8 2.9 0.7 0.7 1.7 1.1 2.7 1q0.6 0 1.2-0.1 0.5-0.1 1-0.4zm9.2 4h-1.2v-1.1q-0.4 0.6-1 0.9-0.7 0.4-1.5 0.4c-0.7 0-1.3-0.2-1.8-0.7-0.4-0.4-0.6-1-0.6-1.6-0.1-0.7 0.2-1.4 0.8-1.9 0.7-0.4 1.6-0.6 2.4-0.6h1.7v-0.1c0-0.5-0.2-0.9-0.6-1.3-0.4-0.3-0.9-0.4-1.5-0.4q-0.6 0-1.2 0.1-0.6 0.2-1.1 0.5v-1.1q0.6-0.2 1.3-0.4 0.6-0.1 1.2-0.1c0.8-0.1 1.7 0.2 2.3 0.8 0.5 0.7 0.8 1.6 0.8 2.5zm-2.4-3.7q-1 0-2 0.4c-0.4 0.2-0.6 0.6-0.5 1.1-0.1 0.4 0.1 0.7 0.4 1 0.3 0.3 0.7 0.4 1.1 0.4 0.6 0 1.2-0.3 1.6-0.7 0.4-0.6 0.6-1.2 0.6-1.9v-0.3zm4.8 3.7v-10h1.1v10zm3.7 0v-10h1.2v10zm9.7-3.3h-5.4c0 0.6 0.3 1.3 0.7 1.8 0.5 0.5 1.2 0.7 1.9 0.6q0.6 0 1.3-0.1 0.7-0.2 1.3-0.5v1.1q-0.7 0.3-1.3 0.4-0.7 0.1-1.4 0.2c-1 0-2-0.4-2.7-1.1-0.7-0.7-1.1-1.7-1-2.7-0.1-1 0.3-2 0.9-2.8 0.7-0.7 1.6-1 2.6-1 0.9 0 1.7 0.3 2.3 0.9 0.6 0.7 0.9 1.7 0.8 2.6zm-5.4-1h4.3c0-0.5-0.2-1.1-0.6-1.5-0.3-0.4-0.9-0.6-1.4-0.6-0.6 0-1.1 0.2-1.6 0.6-0.4 0.4-0.6 1-0.7 1.5zm11.5-1.8q-0.2-0.1-0.4-0.2-0.3 0-0.5 0c-0.6-0.1-1.2 0.2-1.6 0.6-0.4 0.6-0.6 1.2-0.5 1.9v3.8h-1.2v-7.2h1.2v1.1q0.3-0.6 1-1 0.6-0.3 1.4-0.3 0.1 0 0.3 0 0.1 0.1 0.3 0.1zm7.4-1.1l-3.2 7.8q-0.3 1-0.9 1.7c-0.4 0.3-0.9 0.4-1.3 0.4h-1v-1h0.7q0.5 0 0.8-0.2 0.4-0.5 0.6-1.1l0.2-0.5-2.9-7.1h1.2l2.3 5.6 2.2-5.6z"/><path class="c" d="m30 9.3h-8.8c-4.2 0-5.7 1.5-5.7 5.6v8.8c0 4.2 1.5 5.7 5.7 5.7h8.8c4.1 0 5.6-1.5 5.6-5.7v-8.8c0-4.1-1.5-5.6-5.6-5.6z"/><path fill-rule="evenodd" class="d" d="m24.1 21.4l-0.2 0.6h-0.6l1.2-2.7h0.4l1.2 2.7h-0.6l-0.2-0.6zm0.2-0.5h0.8l-0.4-0.9zm8.6-1.6h0.5v2.6h-0.5zm-2.1 2.2h1.4v0.5h-1.9v-2.7h1.9v0.5h-1.4v0.5h1v0.5h-1zm-1.5-2.1h0.5l-0.9 2.6h-0.4l-0.6-1.7-0.6 1.7h-0.5l-0.9-2.6h0.6l0.6 1.8 0.5-1.8h0.5l0.6 1.8zm-6.8 0h0.6v1.5c0 0.6-0.4 1.1-1 1.2q-0.1 0-0.2 0c-0.6 0-1.1-0.4-1.1-1q0-0.1 0-0.2v-1.5h0.5v1.5q0 0.7 0.6 0.7 0.6 0 0.6-0.7zm-3 0h0.6v2.6h-0.6v-1h-1.2v1h-0.5v-2.6h0.5v1.1h1.2zm6.1-3.4c-1.8 0-3.3-1.5-3.3-3.3q0 0 0 0h0.4c0 1.6 1.3 2.8 2.9 2.8 1.6 0 2.9-1.2 2.9-2.8h0.5c0 1.8-1.5 3.3-3.4 3.3z"/></g></svg>