<svg version="1.2" xmlns="http://www.w3.org/2000/svg" viewBox="0 0 89 29" width="89" height="29"><style>.a{fill:none;stroke:#fff;stroke-miterlimit:10;stroke-width:.7}.b{fill:#fff}.c{fill:#fefdfd}</style><path class="a" d="m74.9 28.1h-60.4c-7.3 0-13.4-6-13.4-13.4 0-7.4 6.1-13.4 13.4-13.4h60.4c7.4 0 13.4 6 13.4 13.4 0 7.4-6 13.4-13.4 13.4z"/><path fill-rule="evenodd" class="b" d="m28.8 6.8h1.2c0.5-0.1 0.9 0.1 1.2 0.4 0.3 0.3 0.5 0.7 0.5 1.1v0.6c0 0.4-0.2 0.8-0.5 1.1-0.3 0.3-0.7 0.5-1.2 0.5h-1.2zm0.6 3.2h0.6c0.3 0 0.6-0.1 0.8-0.3q0.2-0.3 0.2-0.8v-0.5q0-0.5-0.2-0.8c-0.2-0.2-0.5-0.3-0.8-0.3h-0.6z"/><path class="b" d="m33 7h-0.7v-0.5h0.7zm0 3.4h-0.7v-2.7h0.7z"/><path class="b" d="m35.2 9.7q0-0.1-0.1-0.2-0.2-0.1-0.5-0.2-0.4 0-0.7-0.3c-0.2-0.1-0.3-0.3-0.3-0.5 0-0.2 0.1-0.4 0.3-0.6q0.4-0.3 0.8-0.2 0.5-0.1 0.8 0.2c0.2 0.2 0.3 0.4 0.3 0.6h-0.6q0-0.1-0.1-0.2c-0.2-0.2-0.5-0.2-0.7-0.1q-0.2 0.1-0.2 0.3 0 0.1 0.2 0.2 0.2 0.1 0.4 0.2 0.4 0 0.8 0.3c0.2 0.1 0.3 0.3 0.3 0.5 0 0.2-0.2 0.5-0.4 0.6q-0.3 0.3-0.8 0.2-0.5 0.1-0.8-0.2c-0.2-0.2-0.4-0.4-0.3-0.7h0.5q0 0.2 0.2 0.4 0.2 0.1 0.4 0.1 0.2 0 0.4-0.1 0.1-0.1 0.1-0.3z"/><path fill-rule="evenodd" class="b" d="m38.9 9.2q0 0.5-0.3 1c-0.2 0.2-0.5 0.4-0.8 0.3q-0.2 0-0.4 0-0.2-0.1-0.4-0.3v1.4h-0.6v-3.9h0.5l0.1 0.4q0.1-0.2 0.3-0.3 0.2-0.1 0.5-0.1c0.3 0 0.6 0.1 0.8 0.4q0.3 0.5 0.3 1v0.1zm-0.7-0.1q0.1-0.3-0.1-0.7c-0.1-0.1-0.3-0.2-0.5-0.2q-0.2 0-0.3 0.1-0.2 0-0.3 0.2v1.2q0.1 0.2 0.3 0.3 0.1 0 0.3 0c0.2 0.1 0.4 0 0.5-0.2q0.2-0.3 0.1-0.6z"/><path fill-rule="evenodd" class="b" d="m39.3 9.1c0-0.4 0.1-0.8 0.3-1 0.3-0.3 0.6-0.4 1-0.4 0.3-0.1 0.7 0.1 0.9 0.4 0.3 0.2 0.4 0.6 0.4 1 0 0.4-0.1 0.8-0.4 1-0.5 0.6-1.3 0.6-1.8 0.1q0 0-0.1-0.1c-0.2-0.2-0.3-0.6-0.3-1zm0.6 0.1q0 0.3 0.2 0.6c0.2 0.3 0.6 0.4 0.8 0.2q0.1-0.1 0.2-0.2 0.2-0.3 0.1-0.6v-0.1q0.1-0.3-0.1-0.6c-0.1-0.2-0.3-0.3-0.5-0.3-0.2 0-0.4 0.1-0.5 0.3q-0.2 0.3-0.2 0.6v0.1z"/><path class="b" d="m43 7.7v0.4q0.2-0.2 0.4-0.3 0.2-0.1 0.4-0.1c0.3-0.1 0.5 0 0.7 0.2q0.3 0.4 0.3 0.9v1.7h-0.7v-1.7q0.1-0.3-0.1-0.5-0.1-0.1-0.4-0.1-0.2 0-0.3 0-0.2 0.1-0.3 0.3v2h-0.6v-2.8z"/><path class="b" d="m46.1 7h-0.6v-0.5h0.6zm0 3.4h-0.6v-2.7h0.6z"/><path fill-rule="evenodd" class="b" d="m49.3 9.2q0 0.5-0.3 1c-0.2 0.2-0.5 0.4-0.8 0.3q-0.3 0-0.5-0.1-0.2-0.1-0.3-0.3l-0.1 0.4h-0.5v-4h0.6v1.5q0.1-0.1 0.3-0.2 0.2-0.1 0.5-0.1c0.3 0 0.6 0.1 0.8 0.4q0.3 0.5 0.3 1zm-0.7 0q0-0.4-0.1-0.7c-0.1-0.2-0.3-0.3-0.5-0.3q-0.2 0-0.3 0.1-0.2 0.1-0.3 0.3v1.1q0.1 0.2 0.2 0.3 0.2 0.1 0.4 0.1c0.2 0 0.4-0.1 0.5-0.2q0.1-0.3 0.1-0.7z"/><path class="b" d="m50.5 10.5h-0.7v-4h0.7z"/><path fill-rule="evenodd" class="b" d="m52.4 10.5c-0.4 0.1-0.7-0.1-1-0.3-0.2-0.3-0.4-0.7-0.3-1v-0.1c-0.1-0.4 0.1-0.8 0.3-1 0.2-0.3 0.6-0.4 0.9-0.4 0.3-0.1 0.6 0.1 0.9 0.3q0.3 0.4 0.2 0.9v0.4h-1.7q0 0.3 0.2 0.5 0.2 0.3 0.5 0.2 0.2 0.1 0.4 0 0.2-0.1 0.4-0.2l0.2 0.4q-0.2 0.2-0.4 0.2-0.3 0.1-0.6 0.1zm-0.1-2.3q-0.2 0-0.4 0.1-0.2 0.2-0.2 0.5h1.1q0-0.3-0.1-0.5-0.2-0.1-0.4-0.1z"/><path fill-rule="evenodd" class="b" d="m56.5 10.5c-0.4 0.1-0.8-0.1-1-0.3-0.2-0.3-0.4-0.7-0.3-1v-0.1c-0.1-0.4 0.1-0.8 0.3-1 0.2-0.3 0.6-0.4 0.9-0.4 0.3-0.1 0.6 0.1 0.8 0.3q0.4 0.4 0.3 0.9v0.4h-1.7q0 0.3 0.2 0.5 0.2 0.3 0.5 0.2 0.2 0.1 0.4 0 0.2-0.1 0.4-0.2l0.2 0.4q-0.2 0.2-0.4 0.2-0.3 0.1-0.6 0.1zm-0.1-2.3q-0.2 0-0.4 0.1-0.2 0.2-0.2 0.5h1.1q0-0.3-0.1-0.5-0.2-0.1-0.4-0.1z"/><path class="b" d="m58.6 7.7l0.1 0.4q0.1-0.2 0.3-0.3 0.2-0.1 0.5-0.1c0.2-0.1 0.5 0 0.7 0.2q0.2 0.4 0.2 0.9v1.7h-0.6v-1.7q0-0.3-0.2-0.5-0.1-0.1-0.3-0.1-0.2 0-0.4 0-0.1 0.1-0.2 0.3v2h-0.7v-2.8z"/><path fill-rule="evenodd" class="b" d="m28.7 20.7l2.7-6.9h1l2.7 6.9h-1l-0.6-1.8h-3.2l-0.6 1.8zm4.5-2.5l-1.3-3.5-1.3 3.5zm3.7 4.5h-0.8v-7.2h0.8v0.8q0.3-0.4 0.7-0.7 0.5-0.2 1-0.2c0.6 0 1.2 0.3 1.5 0.8 0.4 0.5 0.6 1.2 0.6 1.9 0 0.7-0.2 1.4-0.6 2-0.3 0.5-0.9 0.8-1.5 0.8q-0.5 0-1-0.3-0.4-0.2-0.7-0.7zm2.9-4.5c0.1-0.5-0.1-1.1-0.4-1.5-0.2-0.3-0.6-0.6-1-0.5-0.5-0.1-0.9 0.2-1.1 0.5-0.3 0.4-0.4 1-0.4 1.5 0 0.5 0.1 1 0.4 1.5 0.2 0.3 0.6 0.5 1.1 0.5 0.4 0 0.8-0.2 1-0.5 0.3-0.5 0.5-1 0.4-1.5zm3.2 4.5h-0.9v-7.1h0.9v0.8q0.2-0.5 0.6-0.7 0.5-0.3 1-0.3c0.6 0 1.2 0.3 1.5 0.8 0.5 0.6 0.7 1.3 0.6 2 0.1 0.7-0.1 1.4-0.6 2-0.3 0.4-0.9 0.7-1.5 0.7q-0.5 0-1-0.2-0.4-0.3-0.6-0.7zm2.5-6.1c-0.3-0.3-0.7-0.5-1.1-0.5-0.4 0-0.8 0.2-1.1 0.5-0.2 0.5-0.4 1-0.4 1.5 0 0.5 0.2 1.1 0.4 1.5 0.3 0.4 0.7 0.6 1.1 0.5 0.4 0.1 0.8-0.1 1.1-0.5 0.2-0.4 0.4-1 0.4-1.5 0-0.5-0.2-1-0.4-1.5zm7.4 1.3h-1.5v-0.8h2.4v3q-0.5 0.4-1.2 0.6-0.7 0.2-1.4 0.2c-0.9 0-1.8-0.3-2.5-1-0.7-0.7-1-1.7-0.9-2.6-0.1-1 0.2-2 0.9-2.7 0.7-0.6 1.6-1 2.5-0.9q0.7 0 1.3 0.1 0.6 0.2 1.1 0.5v1q-0.5-0.4-1.1-0.6-0.6-0.3-1.2-0.3c-0.7 0-1.4 0.2-1.9 0.7-0.5 0.6-0.7 1.4-0.6 2.2-0.1 0.7 0.1 1.5 0.6 2.1 0.5 0.5 1.2 0.7 1.9 0.7q0.4 0 0.9-0.1 0.4-0.1 0.7-0.3zm6.6 2.9h-0.8v-0.8q-0.3 0.4-0.8 0.7-0.5 0.2-1 0.2c-0.5 0-0.9-0.1-1.3-0.4-0.3-0.4-0.5-0.8-0.5-1.2 0-0.5 0.2-1 0.6-1.4 0.5-0.3 1.2-0.5 1.8-0.4h1.2v-0.1c0-0.3-0.2-0.7-0.4-0.9-0.3-0.2-0.7-0.3-1.1-0.3q-0.4 0-0.9 0.1-0.4 0.1-0.8 0.3v-0.8q0.5-0.2 0.9-0.3 0.4 0 0.9 0c0.6-0.1 1.2 0.1 1.7 0.5 0.4 0.5 0.6 1.2 0.5 1.8zm-1.7-2.6q-0.7-0.1-1.4 0.2c-0.3 0.2-0.4 0.5-0.4 0.8 0 0.3 0.1 0.6 0.3 0.8q0.3 0.3 0.8 0.2c0.4 0 0.9-0.1 1.1-0.5 0.3-0.4 0.5-0.8 0.5-1.3v-0.2zm3.4 2.6v-7.2h0.9v7.2zm2.6 0v-7.2h0.9v7.2zm7-2.4h-3.9c0 0.5 0.2 1 0.5 1.4 0.4 0.3 0.9 0.4 1.4 0.4q0.4 0 0.9-0.1 0.5-0.1 0.9-0.4v0.8q-0.4 0.2-0.9 0.3-0.5 0.1-1 0.1c-0.7 0.1-1.4-0.2-2-0.7-0.5-0.5-0.7-1.2-0.7-1.9 0-0.8 0.2-1.5 0.7-2.1 0.5-0.5 1.2-0.7 1.9-0.7 0.6 0 1.2 0.2 1.6 0.7 0.5 0.5 0.7 1.1 0.6 1.8zm-3.9-0.7h3.1c0-0.4-0.1-0.8-0.4-1.1-0.3-0.3-0.6-0.4-1-0.4-0.4 0-0.9 0.1-1.2 0.4-0.3 0.3-0.5 0.7-0.5 1.1zm8.3-1.3q-0.1-0.1-0.3-0.1-0.2-0.1-0.4-0.1c-0.4 0-0.8 0.2-1.1 0.5-0.3 0.4-0.4 0.9-0.4 1.4v2.7h-0.8v-5.2h0.8v0.8q0.3-0.5 0.7-0.7 0.5-0.2 1.1-0.2 0.1 0 0.2 0 0.1 0 0.2 0zm5.3-0.8l-2.2 5.7q-0.2 0.7-0.7 1.2-0.4 0.3-1 0.3h-0.6v-0.7h0.5q0.3 0 0.5-0.2 0.3-0.3 0.4-0.8l0.2-0.4-2.1-5.1h0.9l1.6 4.1 1.6-4.1z"/><path class="c" d="m21.9 7.3h-6.4c-3 0-4.1 1.1-4.1 4.1v6.4c0 3 1.1 4.1 4.1 4.1h6.4c3 0 4.1-1.1 4.1-4.1v-6.4c0-3-1.1-4.1-4.1-4.1z"/><path fill-rule="evenodd" d="m17.6 16.1l-0.2 0.4h-0.3l0.8-1.9h0.3l0.9 1.9h-0.4l-0.2-0.4zm0.1-0.3h0.6l-0.3-0.7zm6.2-1.2h0.4v1.9h-0.4zm-1.5 1.6h1.1v0.3h-1.5v-1.9h1.4v0.4h-1v0.4h0.7v0.3h-0.7zm-1.1-1.5h0.4l-0.6 1.9h-0.4l-0.4-1.3-0.4 1.3h-0.4l-0.6-1.9h0.4l0.4 1.3 0.4-1.3h0.4l0.4 1.3zm-4.9 0h0.4v1c0 0.5-0.2 0.8-0.7 0.9q0 0-0.1 0c-0.4 0-0.8-0.3-0.8-0.7q-0.1-0.1 0-0.1v-1.1h0.3v1q0 0.5 0.5 0.5 0.4 0 0.4-0.4zm-2.2 0h0.4v1.9h-0.4v-0.8h-0.8v0.8h-0.4v-1.9h0.4v0.7h0.8zm4.4-2.4c-1.3 0-2.4-1.1-2.4-2.4q0 0 0 0h0.3c0 1.1 1 2.1 2.1 2.1 1.2 0 2.1-1 2.1-2.1h0.4c0 1.3-1.1 2.4-2.5 2.4z"/></svg>