<svg version="1.2" xmlns="http://www.w3.org/2000/svg" viewBox="0 0 123 39" width="123" height="39"><style>.a{fill:none;stroke:#000;stroke-miterlimit:10;stroke-width:.9}</style><g style="opacity:.3"><path  d="m78.8 18.9v1.8h-1.1v1.2h1.1v4.1c0 1.3 0.6 1.9 2.2 1.9q0.4 0 0.8-0.1v-1.1c-0.2 0-0.3 0-0.6 0-0.7 0-1-0.3-1-1.1v-3.7h1.6v-1.2h-1.6v-1.8h-1.4z"/><path fill-rule="evenodd" d="m82.4 24.3c0-2.3 1.3-3.7 3.4-3.7 2.1 0 3.3 1.4 3.3 3.7 0 2.3-1.2 3.7-3.3 3.7-2.1 0-3.4-1.4-3.4-3.7zm5.3 0c0-1.6-0.7-2.5-1.9-2.5-1.2 0-1.9 0.9-1.9 2.5 0 1.5 0.7 2.4 1.9 2.4 1.2 0 1.9-0.9 1.9-2.4z"/><path  d="m90.2 27.9h1.5v-4.3c0-1 0.7-1.6 1.8-1.6 0.2 0 0.7 0 0.8 0v-1.3c-0.2-0.1-0.5-0.1-0.7-0.1-0.9 0-1.7 0.5-1.9 1.2h-0.1v-1.1h-1.4v7.2z"/><path fill-rule="evenodd" d="m100.9 25.9c-0.3 1.3-1.5 2.1-3.1 2.1-2.1 0-3.3-1.4-3.3-3.7 0-2.3 1.3-3.7 3.3-3.7 2 0 3.2 1.3 3.2 3.6v0.5h-5.1c0.1 1.3 0.8 2.1 1.9 2.1 0.9 0 1.5-0.3 1.7-0.9zm-3.1-4.1q0 0 0 0 0 0 0 0zm0 0c-1 0-1.8 0.7-1.8 1.8h3.6c-0.1-1.1-0.7-1.8-1.8-1.8z"/><path  d="m69.6 25.2c0.1 1.8 1.5 2.9 3.7 2.9 2.3 0 3.8-1.2 3.8-3.1 0-1.4-0.8-2.3-2.8-2.7l-1.1-0.3c-1.3-0.3-1.8-0.7-1.8-1.4 0-0.9 0.8-1.5 2-1.5 1.2 0 1.9 0.6 2.1 1.5h1.4c0-1.6-1.5-2.8-3.5-2.8-2.1 0-3.6 1.2-3.6 2.9 0 1.5 0.8 2.3 2.6 2.7l1.3 0.3c1.3 0.3 1.8 0.8 1.8 1.5 0 0.9-0.9 1.5-2.1 1.5-1.3 0-2.2-0.6-2.3-1.5h-1.5z"/><path fill-rule="evenodd" d="m54.9 20.6c1.9 0 3 1.4 3 3.7 0 2.3-1.1 3.7-2.9 3.7-1.1 0-1.9-0.5-2.2-1.2h-0.2v3.4h-1.4v-9.5h1.4v1.2h0.1c0.4-0.8 1.3-1.3 2.2-1.3zm1.6 3.7c0-1.5-0.8-2.4-2-2.4-1.1 0-1.9 0.9-1.9 2.4 0 1.5 0.8 2.4 1.9 2.4 1.2 0 2-0.9 2-2.4z"/><path fill-rule="evenodd" d="m62.9 20.6c1.8 0 2.9 1.4 2.9 3.7 0 2.3-1.1 3.7-2.9 3.7-1.1 0-1.9-0.5-2.2-1.2h-0.1v3.4h-1.5v-9.5h1.4v1.2h0.1c0.4-0.8 1.3-1.3 2.3-1.3zm1.5 3.7c0-1.5-0.8-2.4-1.9-2.4-1.2 0-2 0.9-2 2.4 0 1.5 0.8 2.4 1.9 2.4 1.2 0 2-0.9 2-2.4z"/><path fill-rule="evenodd" d="m48.7 27.9l-0.9-2.6h-3.7l-0.9 2.6h-1.6l3.5-9.9h1.7l3.5 9.9zm-2.8-8.1l-1.4 4.2h2.9l-1.4-4.2z"/><path  d="m33.9 19.8c0-1.3 0.8-2.6 1.9-3.3-0.7-1-1.9-1.7-3.2-1.7-1.3-0.1-2.6 0.8-3.3 0.8-0.6 0-1.7-0.8-2.8-0.8-1.5 0.1-2.8 0.9-3.6 2.2-1.5 2.7-0.3 6.5 1.1 8.7 0.8 1 1.6 2.2 2.7 2.2 1.1-0.1 1.5-0.7 2.9-0.7 1.3 0 1.7 0.7 2.8 0.6 1.2 0 1.9-1 2.6-2.1q0.8-1.1 1.2-2.4c-1.3-0.6-2.3-2-2.3-3.5z"/><path  d="m31.8 13.4c0.6-0.8 0.9-1.8 0.9-2.8-1 0.1-1.9 0.6-2.6 1.4-0.6 0.7-1 1.6-0.9 2.6 1 0 2-0.4 2.6-1.2z"/><path fill-rule="evenodd" d="m42.8 9.1h1.7q0.9 0 1.5 0.6 0.6 0.6 0.6 1.5v0.8q0 0.9-0.6 1.5-0.6 0.6-1.5 0.6h-1.7zm0.8 4.3h0.9q0.6 0 0.9-0.4 0.4-0.4 0.3-1v-0.8q0.1-0.6-0.3-1-0.4-0.4-0.9-0.4h-0.9z"/><path  d="m48.3 9.5h-0.8v-0.7h0.8zm0 4.6h-0.8v-3.7h0.8z"/><path  d="m51.3 13.1q0-0.2-0.2-0.3-0.1-0.2-0.6-0.3-0.6-0.1-1-0.4-0.3-0.2-0.3-0.6 0-0.5 0.4-0.8 0.4-0.4 1-0.4 0.7 0 1.1 0.4 0.4 0.3 0.4 0.8h-0.8q0-0.2-0.2-0.4-0.2-0.1-0.5-0.2-0.3 0-0.4 0.2-0.2 0.1-0.2 0.3 0 0.2 0.1 0.3 0.2 0.1 0.6 0.2 0.7 0.2 1.1 0.4 0.3 0.3 0.3 0.7 0 0.5-0.4 0.8-0.4 0.4-1.1 0.4-0.7 0-1.1-0.4-0.4-0.4-0.4-0.9h0.8q0 0.3 0.2 0.5 0.2 0.1 0.5 0.1 0.3 0 0.5-0.1 0.2-0.1 0.2-0.3z"/><path fill-rule="evenodd" d="m56.1 12.4q0 0.8-0.4 1.3-0.4 0.5-1 0.5-0.4 0-0.6-0.2-0.2-0.1-0.4-0.3v1.8h-0.8v-5.1h0.7v0.5q0.2-0.3 0.5-0.4 0.2-0.2 0.6-0.2 0.6 0 1 0.6 0.4 0.5 0.4 1.4v0.1zm-0.8-0.1q0-0.6-0.2-0.9-0.3-0.4-0.7-0.4-0.2 0-0.4 0.1-0.2 0.1-0.3 0.3v1.7q0.1 0.2 0.3 0.3 0.2 0.1 0.4 0.1 0.4 0 0.7-0.3 0.2-0.3 0.2-0.8z"/><path fill-rule="evenodd" d="m56.7 12.2q0-0.8 0.4-1.3 0.5-0.6 1.3-0.6 0.7 0 1.2 0.6 0.5 0.5 0.5 1.3v0.1q0 0.8-0.5 1.3-0.5 0.6-1.2 0.6-0.8 0-1.3-0.6-0.4-0.5-0.4-1.3zm0.8 0q0 0.6 0.2 0.9 0.2 0.4 0.7 0.4 0.4 0 0.6-0.4 0.2-0.3 0.2-0.9 0-0.6-0.2-0.9-0.2-0.3-0.6-0.3-0.5 0-0.7 0.3-0.2 0.3-0.2 0.9z"/><path  d="m61.5 10.4l0.1 0.5q0.2-0.3 0.4-0.4 0.3-0.2 0.7-0.2 0.5 0 0.8 0.4 0.4 0.3 0.4 1.1v2.3h-0.9v-2.3q0-0.4-0.1-0.6-0.2-0.2-0.5-0.2-0.3 0-0.5 0.1-0.2 0.1-0.3 0.3v2.7h-0.8v-3.7h0.7z"/><path  d="m65.6 9.5h-0.8v-0.7h0.8zm0 4.6h-0.8v-3.7h0.8z"/><path fill-rule="evenodd" d="m69.8 12.4q0 0.8-0.4 1.3-0.4 0.5-1 0.5-0.4 0-0.7-0.2-0.2-0.1-0.4-0.4l-0.1 0.5h-0.6v-5.3h0.8v2q0.2-0.2 0.4-0.3 0.2-0.2 0.5-0.2 0.7 0 1.1 0.6 0.4 0.5 0.4 1.4v0.1zm-0.8-0.1q0-0.6-0.2-0.9-0.2-0.4-0.7-0.4-0.2 0-0.4 0.1-0.2 0.2-0.3 0.4v1.5q0.1 0.2 0.3 0.4 0.2 0.1 0.5 0.1 0.4 0 0.6-0.3 0.2-0.3 0.2-0.8z"/><path  d="m71.4 14.1h-0.8v-5.3h0.8z"/><path fill-rule="evenodd" d="m73.9 14.2q-0.8 0-1.3-0.5-0.4-0.6-0.4-1.4v-0.1q0-0.8 0.4-1.3 0.5-0.6 1.2-0.6 0.7 0 1.1 0.5 0.4 0.5 0.4 1.2v0.5h-2.3q0 0.4 0.3 0.7 0.2 0.3 0.6 0.3 0.4 0 0.6-0.1 0.3-0.1 0.5-0.2l0.3 0.5q-0.3 0.2-0.6 0.3-0.4 0.2-0.8 0.2zm-0.1-3.2q-0.3 0-0.5 0.2-0.2 0.3-0.3 0.6l0.1 0.1h1.4v-0.1q0-0.4-0.2-0.6-0.1-0.2-0.5-0.2z"/><path fill-rule="evenodd" d="m79.3 14.2q-0.8 0-1.3-0.5-0.4-0.6-0.4-1.4v-0.1q0-0.8 0.4-1.3 0.5-0.6 1.2-0.6 0.7 0 1.1 0.5 0.4 0.5 0.4 1.2v0.5h-2.3q0 0.4 0.3 0.7 0.2 0.3 0.6 0.3 0.4 0 0.6-0.1 0.3-0.1 0.5-0.2l0.3 0.5q-0.3 0.2-0.6 0.3-0.4 0.2-0.8 0.2zm-0.1-3.2q-0.3 0-0.5 0.2-0.2 0.3-0.3 0.6l0.1 0.1h1.4v-0.1q0-0.4-0.2-0.6-0.1-0.2-0.5-0.2z"/><path  d="m82.1 10.4l0.1 0.5q0.2-0.3 0.4-0.4 0.3-0.2 0.7-0.2 0.5 0 0.9 0.4 0.3 0.3 0.3 1.1v2.3h-0.8v-2.3q0-0.4-0.2-0.6-0.2-0.2-0.5-0.2-0.3 0-0.5 0.1-0.2 0.1-0.3 0.3v2.7h-0.8v-3.7h0.7z"/><path class="a" d="m103.4 38.1h-83.6c-10.2 0-18.5-8.4-18.5-18.6 0-10.2 8.3-18.6 18.5-18.6h83.6c10.2 0 18.5 8.4 18.5 18.6 0 10.2-8.3 18.6-18.5 18.6z"/></g></svg>