<svg version="1.2" xmlns="http://www.w3.org/2000/svg" viewBox="0 0 90 29" width="90" height="29"><style>.a{fill:#fff}.b{fill:none;stroke:#fff;stroke-miterlimit:10;stroke-width:.7}</style><path class="a" d="m57.8 14.4v1.3h-0.8v0.9h0.8v3c0 1 0.5 1.4 1.6 1.4q0.3 0 0.6-0.1v-0.8c-0.2 0-0.3 0-0.4 0-0.5 0-0.8-0.3-0.8-0.8v-2.7h1.2v-0.8h-1.2v-1.4h-1z"/><path fill-rule="evenodd" class="a" d="m60.4 18.3c0-1.7 1-2.7 2.5-2.7 1.5 0 2.4 1 2.4 2.7 0 1.7-0.9 2.7-2.4 2.7-1.5 0-2.5-1-2.5-2.7zm3.9 0c0-1.1-0.5-1.8-1.4-1.8-0.9 0-1.4 0.7-1.4 1.8 0 1.2 0.5 1.8 1.4 1.8 0.9 0 1.4-0.6 1.4-1.8z"/><path class="a" d="m66.1 20.9h1.1v-3c0-0.8 0.5-1.3 1.3-1.3 0.2 0 0.5 0.1 0.6 0.1v-1c-0.2 0-0.3-0.1-0.5-0.1-0.7 0-1.3 0.4-1.4 0.9h-0.1v-0.8h-1v5.2z"/><path fill-rule="evenodd" class="a" d="m73.9 19.5c-0.3 1-1.1 1.5-2.3 1.5-1.5 0-2.4-1-2.4-2.7 0-1.6 1-2.7 2.4-2.7 1.5 0 2.3 1 2.3 2.6v0.4h-3.6v0.1c0 0.9 0.5 1.5 1.3 1.5q1-0.1 1.3-0.7zm-2.3-3q0 0 0 0 0 0 0 0zm0 0c-0.7 0-1.3 0.5-1.3 1.3h2.6c0-0.8-0.5-1.3-1.3-1.3z"/><path class="a" d="m51.1 19c0.1 1.3 1.1 2.1 2.7 2.1 1.7 0 2.8-0.9 2.8-2.2 0-1.1-0.6-1.7-2.1-2l-0.8-0.2c-0.9-0.2-1.3-0.5-1.3-1 0-0.7 0.6-1.1 1.5-1.1 0.8 0 1.4 0.4 1.5 1.1h1c0-1.2-1.1-2.1-2.5-2.1-1.6 0-2.6 0.9-2.6 2.1 0 1.1 0.6 1.7 1.9 2l0.9 0.2c0.9 0.3 1.3 0.6 1.3 1.1 0 0.7-0.6 1.1-1.5 1.1-1 0-1.6-0.4-1.7-1.1h-1.1z"/><path fill-rule="evenodd" class="a" d="m40.4 15.6c1.4 0 2.2 1.1 2.2 2.7 0 1.7-0.8 2.7-2.1 2.7-0.8 0-1.4-0.3-1.6-0.9h-0.1v2.6h-1.1v-7h1v0.9h0.1c0.3-0.6 0.9-1 1.6-1zm1.1 2.7c0-1.1-0.5-1.7-1.3-1.7-0.9 0-1.4 0.6-1.4 1.7 0 1.1 0.5 1.8 1.4 1.8 0.8 0 1.3-0.7 1.3-1.8z"/><path fill-rule="evenodd" class="a" d="m46.2 15.6c1.3 0 2.2 1.1 2.2 2.7 0 1.7-0.9 2.7-2.2 2.7-0.7 0-1.3-0.3-1.6-0.9h-0.1v2.6h-1v-7h1v0.9h0.1c0.3-0.6 0.9-1 1.6-1zm1.1 2.7c0-1.1-0.5-1.7-1.4-1.7-0.9 0-1.4 0.6-1.4 1.7 0 1.1 0.5 1.8 1.4 1.8 0.9 0 1.4-0.7 1.4-1.8z"/><path fill-rule="evenodd" class="a" d="m35.9 20.9l-0.6-1.9h-2.8l-0.6 1.9h-1.2l2.6-7.1h1.2l2.6 7.1zm-2.1-5.8l-1 3h2.1l-1-3z"/><path class="a" d="m25.2 15.1c0-1 0.5-1.9 1.3-2.4-0.5-0.8-1.4-1.2-2.3-1.3-1-0.1-1.9 0.6-2.4 0.6-0.5 0-1.2-0.6-2.1-0.5-1 0-2 0.6-2.5 1.5-1.1 2-0.3 4.8 0.8 6.3 0.5 0.8 1.1 1.7 1.9 1.6 0.8 0 1.1-0.5 2.1-0.5 0.9 0 1.2 0.5 2 0.5 0.9 0 1.4-0.8 2-1.5q0.5-0.8 0.8-1.8c-1-0.4-1.6-1.4-1.6-2.5z"/><path class="a" d="m23.6 10.4c0.5-0.6 0.7-1.3 0.6-2-0.7 0.1-1.3 0.4-1.8 1-0.5 0.5-0.7 1.2-0.7 1.9 0.7 0 1.4-0.3 1.9-0.9z"/><path fill-rule="evenodd" class="a" d="m31.6 7.3h1.2q0.7 0 1.1 0.4 0.5 0.5 0.5 1.1v0.6q0 0.7-0.5 1.1-0.4 0.4-1.1 0.4h-1.2zm0.6 3.1h0.6q0.4 0 0.7-0.2 0.3-0.3 0.3-0.8v-0.6q0-0.4-0.3-0.7-0.3-0.3-0.7-0.3h-0.6z"/><path class="a" d="m35.6 7.6h-0.6v-0.6h0.6zm0 3.4h-0.6v-2.7h0.6z"/><path class="a" d="m37.8 10.2q0-0.2-0.1-0.3-0.1 0-0.5-0.1-0.4-0.1-0.7-0.3-0.2-0.2-0.2-0.5 0-0.3 0.2-0.6 0.3-0.2 0.8-0.2 0.5 0 0.8 0.2 0.3 0.3 0.2 0.6h-0.5q0-0.1-0.2-0.3-0.1-0.1-0.3-0.1-0.2 0-0.3 0.1-0.2 0.1-0.2 0.3 0 0.1 0.2 0.2 0.1 0.1 0.4 0.1 0.5 0.1 0.7 0.3 0.3 0.2 0.3 0.5 0 0.4-0.3 0.6-0.3 0.3-0.8 0.3-0.5 0-0.8-0.3-0.3-0.3-0.3-0.6h0.6q0 0.2 0.1 0.3 0.2 0.1 0.4 0.1 0.2 0 0.4-0.1 0.1-0.1 0.1-0.2z"/><path fill-rule="evenodd" class="a" d="m41.3 9.7q0 0.5-0.3 0.9-0.3 0.4-0.8 0.4-0.2 0-0.4-0.1-0.1-0.1-0.3-0.3v1.3h-0.6v-3.7h0.5l0.1 0.4q0.1-0.2 0.3-0.3 0.2-0.1 0.4-0.1 0.5 0 0.8 0.4 0.3 0.4 0.3 1v0.1zm-0.6-0.1q0-0.4-0.2-0.7-0.1-0.2-0.4-0.2-0.2 0-0.4 0-0.1 0.1-0.2 0.3v1.2q0.1 0.1 0.2 0.2 0.2 0.1 0.4 0.1 0.3 0 0.4-0.2 0.2-0.3 0.2-0.6z"/><path fill-rule="evenodd" class="a" d="m41.7 9.5q0-0.6 0.3-0.9 0.4-0.4 0.9-0.4 0.6 0 0.9 0.4 0.4 0.3 0.4 0.9v0.1q0 0.6-0.4 1-0.3 0.4-0.9 0.4-0.5 0-0.9-0.4-0.3-0.4-0.3-1zm0.6 0q0 0.4 0.2 0.7 0.1 0.2 0.4 0.2 0.3 0 0.5-0.2 0.2-0.3 0.2-0.7 0-0.4-0.2-0.6-0.2-0.3-0.5-0.3-0.3 0-0.4 0.3-0.2 0.2-0.2 0.6z"/><path class="a" d="m45.2 8.2l0.1 0.4q0.1-0.2 0.3-0.3 0.2-0.1 0.5-0.1 0.4 0 0.6 0.2 0.2 0.3 0.2 0.8v1.7h-0.6v-1.7q0-0.3-0.1-0.4-0.1-0.1-0.4-0.1-0.1 0-0.3 0-0.1 0.1-0.2 0.2v2h-0.6v-2.7h0.5z"/><path class="a" d="m48.2 7.6h-0.6v-0.6h0.6zm0 3.4h-0.6v-2.7h0.6z"/><path fill-rule="evenodd" class="a" d="m51.2 9.7q0 0.5-0.2 0.9-0.3 0.4-0.8 0.4-0.3 0-0.4-0.1-0.2-0.1-0.3-0.3l-0.1 0.3h-0.5v-3.9h0.6v1.5q0.1-0.1 0.3-0.2 0.2-0.1 0.4-0.1 0.5 0 0.8 0.4 0.3 0.4 0.3 1v0.1zm-0.7-0.1q0-0.4-0.1-0.7-0.1-0.2-0.4-0.2-0.3 0-0.4 0.1-0.1 0.1-0.2 0.2v1.1q0.1 0.2 0.2 0.3 0.1 0.1 0.4 0.1 0.3 0 0.4-0.2 0.1-0.3 0.1-0.6z"/><path class="a" d="m52.4 10.9h-0.6v-3.9h0.6z"/><path fill-rule="evenodd" class="a" d="m54.2 11q-0.6 0-0.9-0.4-0.3-0.4-0.3-1v-0.1q0-0.6 0.3-0.9 0.3-0.4 0.9-0.4 0.5 0 0.8 0.3 0.3 0.3 0.3 0.9v0.3h-1.7q0 0.4 0.2 0.6 0.1 0.2 0.5 0.2 0.2 0 0.4-0.1 0.2 0 0.3-0.1l0.2 0.4q-0.1 0.1-0.4 0.2-0.2 0.1-0.6 0.1zm0-2.3q-0.3 0-0.4 0.1-0.2 0.2-0.2 0.5h1.1v-0.1q0-0.2-0.1-0.4-0.2-0.1-0.4-0.1z"/><path fill-rule="evenodd" class="a" d="m58.2 11q-0.6 0-1-0.4-0.3-0.4-0.3-1v-0.1q0-0.6 0.3-0.9 0.4-0.4 0.9-0.4 0.5 0 0.8 0.3 0.3 0.3 0.3 0.9v0.3h-1.7q0 0.4 0.2 0.6 0.2 0.2 0.5 0.2 0.2 0 0.4-0.1 0.2 0 0.4-0.1l0.2 0.4q-0.2 0.1-0.5 0.2-0.2 0.1-0.5 0.1zm-0.1-2.3q-0.2 0-0.4 0.1-0.1 0.2-0.2 0.5h1.1v-0.1q0-0.2-0.1-0.4-0.1-0.1-0.4-0.1z"/><path class="a" d="m60.2 8.2l0.1 0.4q0.1-0.2 0.3-0.3 0.2-0.1 0.4-0.1 0.5 0 0.7 0.2 0.2 0.3 0.2 0.8v1.7h-0.6v-1.7q0-0.3-0.1-0.4-0.1-0.1-0.4-0.1-0.1 0-0.3 0-0.1 0.1-0.2 0.2v2h-0.6v-2.7h0.5z"/><path class="b" d="m75.7 28.4h-60.8c-7.4 0-13.5-6.1-13.5-13.6 0-7.4 6.1-13.5 13.5-13.5h60.8c7.4 0 13.5 6.1 13.5 13.5 0 7.5-6.1 13.6-13.5 13.6z"/></svg>