<svg version="1.2" xmlns="http://www.w3.org/2000/svg" viewBox="0 0 252 53" width="252" height="53"><style>.a{fill:#de2626}</style><path class="a" d="m26.1 15.6q-2.1-0.5-4-0.5-3.7 0-6.1 2.4-2.3 2.3-3.3 5.6-1 3.3-1 6.3 0 7.7 6.7 7.7 1.7 0 4-0.4 2.3-0.4 3.7-0.9l-1.6 9.4q-3.6 1-8.1 1-7.6 0-11.7-4.1-4.1-4.1-4.1-11.6 0-6.3 2.7-11.9 2.7-5.6 7.9-9.1 5.1-3.5 12-3.5 4.4 0 7.9 1.5l-1.7 9.4q-1.3-0.7-3.3-1.3z"/><path fill-rule="evenodd" class="a" d="m50.5 45.6l-0.6-7.5-10.6-0.1-3.2 7.5h-10.6l17.1-38.5h15.5l3.3 38.6zm-0.8-16.1l-1.1-12.6h-0.6l-5.6 12.6z"/><path class="a" d="m85.3 0.8l-1 5.4q3.6 0.3 6.6 1.6l-1.6 9.1q-2.1-0.9-4.3-1.5-2.1-0.6-3.8-0.6-1.8 0-2.9 0.7-1.2 0.7-1.2 2.2 0 1.4 1 2.5 1.1 1 3.3 2.5 2.4 1.7 3.9 2.9 1.4 1.3 2.5 3.4 1.1 2 1.1 4.8-0.1 5-3.5 8.3-3.4 3.3-9.1 4l-0.9 5.5-6.6-0.1 1-5.5q-4.9-0.6-7.9-2.2l1.7-9.6q2.5 1.5 5.7 2.4 3.1 0.9 5.2 1 1.6 0 2.6-0.7 1-0.7 1-2 0-1.5-1.1-2.5-1-1.1-3.3-2.7-2.3-1.5-3.8-2.8-1.5-1.2-2.6-3.2-1-2-1-4.8 0-4.7 3.1-8 3.1-3.2 8.3-4.3l1-5.8z"/><path class="a" d="m105.5 7.1l-2.6 14.6h9.7l2.6-14.6h10.8l-6.9 38.6h-10.8l2.7-15.3h-9.6l-2.8 15.2h-10.8l6.9-38.6z"/><path fill-rule="evenodd" class="a" d="m128.5 6.9h17.3q4.5 0 7.1 2 2.7 2.1 2.7 5.9 0 3.3-2 5.9-1.9 2.7-4.9 4.2v0.3q2.5 0.8 3.8 2.7 1.3 1.9 1.3 4.9 0 3.5-1.9 6.5-1.8 2.9-5.2 4.7-3.4 1.7-7.8 1.7h-17.3zm9.8 31.3q2.3 0 3.7-1.6 1.4-1.5 1.4-3.6 0-1.6-1-2.5-0.9-0.9-2.7-0.9h-4.7l-1.5 8.5zm2-15.6q2.3 0 3.7-1.3 1.3-1.3 1.3-3.3 0-3.5-3.5-3.5h-4l-1.5 8.1z"/><path fill-rule="evenodd" class="a" d="m175.7 45.8l-0.6-7.5h-10.6l-3.2 7.4h-10.6l17.1-38.5h15.5l3.3 38.6zm-0.8-16.1l-1.1-12.6h-0.6l-5.6 12.6z"/><path class="a" d="m208 29l1.6 7.8h-0.1q-0.5 0.1-1.2 0.2-2.3 0.4-4 0.4-6.7 0-6.7-7.7 0-3 1-6.3 1-3.2 3.3-5.6 2.4-2.4 6.1-2.3 2 0 4 0.5 2 0.5 3.4 1.2l1.6-9.4q-3.4-1.5-7.9-1.5-6.9 0-12 3.5-5.1 3.5-7.8 9.1-2.8 5.6-2.8 11.9 0 7.6 4.1 11.6 4.1 4.1 11.8 4.1 4.4 0 8-1 0.5-0.2 0.6-0.2l1.7 7.1 5.4-13.8z"/><path class="a" d="m251.4 7.3h-11.1l-12.1 15.9h-0.4l2.9-15.9h-10.8l-4.9 26.5 4.6 4.5-2.8 7.5h7l1.8-10.4 4.2-5.5h0.5l3.6 16h11.2l-5.3-23.6z"/></svg>