<svg version="1.2" xmlns="http://www.w3.org/2000/svg" viewBox="0 0 62 23" width="62" height="23"><style>.a{fill:#fff}</style><path class="a" d="m57.3 2.4l-7 6.9 1.8 1.9 7-7z"/><path class="a" d="m47.3 0.9h-2.6v7.5h2.6z"/><path fill-rule="evenodd" class="a" d="m49.9 12.5q1.8 1.8 1.7 4.3 0.1 2.5-1.7 4.3-1.8 1.8-4.2 1.8-2.5 0-4.2-1.8-1.8-1.8-1.8-4.3 0-2.5 1.8-4.3 1.7-1.8 4.2-1.8 2.4 0 4.2 1.8zm-2 6.6q0.9-1 0.9-2.3 0-1.4-0.9-2.3-0.9-0.9-2.2-0.9-1.3 0-2.2 0.9-1 0.9-1 2.3 0 1.3 1 2.3c0.6 0.6 1.3 0.9 2.2 0.9q1.3 0 2.2-0.9z"/><path class="a" d="m7.9 10.6q1.3 0 2.5 0.8c0.6 0.4 1.2 1.1 1.6 1.9h3q-0.7-2.4-2.6-4-2-1.6-4.5-1.5c-2.1-0.1-3.8 0.7-5.2 2.2-1.5 1.4-2.2 3.2-2.2 5.3q0 3.1 2.2 5.3c1.4 1.4 3.1 2.2 5.2 2.2q2.5 0 4.5-1.6c1.3-1 2.1-2.3 2.6-3.9h-3q-0.6 1.1-1.6 1.9c-0.8 0.4-1.6 0.7-2.5 0.7q-1.9 0-3.2-1.4-1.4-1.3-1.4-3.2 0-1.9 1.4-3.3 1.3-1.4 3.2-1.4z"/><path fill-rule="evenodd" class="a" d="m30.9 14.3v8.5h-2.9v-1.2q-1.3 1.2-3.7 1.2-1.4 0-2.3-0.8-1-0.9-1-2.5 0-2.2 1.6-3.1 0.9-0.5 2.5-0.8l2.2-0.3q0.6-0.3 0.6-0.9c0-0.5-0.1-0.8-0.5-1q-0.5-0.3-1.4-0.3-1 0-1.5 0.6c-0.2 0.2-0.4 0.6-0.4 1.1h-2.9c0.1-1.1 0.4-1.9 0.9-2.6q1.1-1.5 4-1.5 1.9 0 3.3 0.8c1 0.5 1.5 1.4 1.5 2.8zm-3 3.8v-1.2l-0.6 0.3-1.4 0.4q-0.9 0.1-1.4 0.4-0.7 0.4-0.7 1.3 0 0.8 0.5 1.1 0.4 0.3 1 0.3 1 0 1.8-0.5 0.8-0.6 0.8-2.1z"/><path class="a" d="m19.3 7.8h-2.8v15h2.8z"/><path class="a" d="m38.7 10.8l-1.1 0.3q-1.2 0.5-2.1 1.7v-1.5h-2.7v11.5h2.9v-5.5q-0.1-1.4 0.3-2c0.2-0.5 0.6-0.8 1-1.1q0.7-0.6 1.6-0.6l0.9 0.1-0.1-2.9h-0.7z"/><path class="a" d="m61 14.8v-0.7h-7.6v2.5h7.6c0 0 0-1.8 0-1.8z"/></svg>