<svg version="1.2" xmlns="http://www.w3.org/2000/svg" viewBox="0 0 181 145" width="181" height="145"><style>.a{fill:#de2626}</style><path fill-rule="evenodd" d="m168.3 25c6.6 0 12 5.5 12 12.1v95c0 6-6 12.1-12 12.1h-45.8c-6 0-12-6.1-12-12.1v-22.2h5.6v10.1h58.5v-75.4h-58.5v11.1h-5.6v-18.6c0-6.7 5.4-12.1 12-12.1h45.8zm6.3 107.1v-6.4h-58.5v6.4c0 2.9 3.5 6.4 6.4 6.4h45.8c2.9 0 6.3-3.5 6.3-6.4zm0.1-93.2v-1.8c0-3.5-2.9-6.4-6.4-6.4h-45.8c-3.5 0-6.4 2.9-6.4 6.4v1.8z"/><path  d="m151.1 129.3h-11.4v5.6h11.4z"/><path  d="m41.6 129.3h-11.4v5.6h11.4z"/><path fill-rule="evenodd" d="m81 104.7c-2.8 3.7-6.2 6.7-10.2 9v18.4c0 6-6 12.1-12 12.1h-45.8c-6 0-12-6.1-12-12.1v-95c0-6.6 5.4-12.1 12-12.1h45.8c6.7 0 12 5.5 12 12.1v15.6c3.3 1.9 6.3 4.3 8.7 7.2h43.8v-15l37.4 37.4-37.4 37.4v-15h-42.3zm-68-74.1c-3.5 0-6.3 2.9-6.3 6.5v1.8h58.5v-1.8c0-3.6-2.9-6.5-6.4-6.5zm70.1 33.9c3.3 5.4 5.3 11.8 5.3 18.6 0 6.1-1.6 11.8-4.3 16.8h43.9v8.3l26-26-26-26v8.3zm-29.3-10.8c-16 0-29 13.2-29 29.4 0 16.3 13 29.5 29 29.5 16 0 29-13.2 29-29.5 0-16.2-13-29.4-29-29.4zm11.4 78.4v-6.5h-58.5v6.5c0 2.8 3.5 6.4 6.4 6.4h45.8c2.9 0 6.4-3.6 6.4-6.4zm0-15.8c-3.6 1.3-7.5 2-11.5 2-19.1 0-34.6-15.8-34.6-35.1 0-19.4 15.5-35.2 34.6-35.2 4 0 7.9 0.8 11.5 2v-5.5h-58.5v75.5h58.5z"/><path class="a" d="m129.3 18.6h5.7v-6.3h6.3v-5.7h-6.3v-6.3h-5.7v6.3h-6.2v5.7h6.2z"/><path class="a" d="m92.2 49.3h5.7v-6.4h6.3v-5.7h-6.3v-6.3h-5.7v6.3h-6.2v5.7h6.2z"/><path class="a" d="m67.4 21.3h5.7v-6.4h6.3v-5.6h-6.3v-6.4h-5.7v6.4h-6.3v5.6h6.3z"/><path class="a" d="m51.7 64v5.2h-0.4c-3.8 0-6.8 3-6.8 6.8v1.3c0 2.9 1.9 5.6 4.6 6.5l7.9 2.6c1.1 0.4 1.9 1.4 1.9 2.6v1.4c0 1.5-1.2 2.8-2.8 2.8h-4.8c-1.5 0-2.8-1.3-2.8-2.8h-4c0 3.7 3.1 6.8 6.8 6.8h0.4v5.2h4.1v-5.2h0.3c3.8 0 6.9-3.1 6.9-6.8v-1.4c0-2.9-1.9-5.5-4.7-6.4l-7.9-2.6c-1.1-0.4-1.9-1.5-1.9-2.7v-1.3c0-1.6 1.3-2.8 2.8-2.8h4.8c1.6 0 2.8 1.2 2.8 2.8h4c0-3.8-3-6.8-6.8-6.8h-0.4v-5.2h-4z"/></svg>