<svg version="1.2" xmlns="http://www.w3.org/2000/svg" viewBox="0 0 130 176" width="130" height="176"><style>.a{fill:#de2626}</style><path  d="m61.2-0.1l-48.7 48.7h19.5v56.2c3.2-0.8 5.7-2.8 8.1-4.9q-1 0.5-2 1.1v-58.5h-10.8l33.9-33.9 33.8 33.9h-10.8v57.1q-0.6-0.3-1.2-0.6c2.2 1.8 4.7 3.2 7.4 4.3v-54.7h19.5z"/><path class="a" d="m97.9 23.9h7.4v-8.3h8.1v-7.4h-8.1v-8.3h-7.4v8.3h-8.2v7.4h8.2z"/><path class="a" d="m114.1 102.1h7.4v-8.3h8.1v-7.4h-8.1v-8.3h-7.4v8.3h-8.2v7.4h8.2z"/><path class="a" d="m8.9 102.1h7.3v-8.3h8.2v-7.4h-8.2v-8.2h-7.3v8.2h-8.2v7.4h8.2z"/><path class="a" d="m61.3 109.3v6.7h-0.5c-4.9 0-8.9 4-8.9 8.9v1.7c0 3.8 2.5 7.2 6.1 8.5l10.2 3.4c1.5 0.4 2.5 1.8 2.5 3.4v1.7c0 2.1-1.6 3.7-3.6 3.7h-6.3c-2 0-3.6-1.7-3.6-3.7h-5.2c0 4.9 4 8.9 8.9 8.9h0.4v6.8h5.3v-6.8h0.5c4.9 0 8.9-4 8.9-8.9v-1.7c0-3.8-2.5-7.2-6.1-8.4l-10.2-3.4c-1.5-0.5-2.5-1.9-2.5-3.5v-1.7c0-2 1.6-3.6 3.6-3.6h6.3c2 0 3.6 1.6 3.6 3.6h5.3c0-4.9-4-8.9-8.9-8.9h-0.5v-6.7h-5.3z"/><path fill-rule="evenodd" d="m106.6 133.1c0 23.6-19.1 42.7-42.7 42.7-23.5 0-42.6-19.1-42.6-42.7 0-23.6 19.1-42.7 42.6-42.7 23.6 0 42.7 19.1 42.7 42.7zm-78.2 0c0 19.6 15.9 35.5 35.5 35.5 19.6 0 35.5-15.9 35.5-35.5 0-19.6-15.9-35.5-35.5-35.5-19.6 0-35.5 15.9-35.5 35.5z"/></svg>