<svg version="1.2" xmlns="http://www.w3.org/2000/svg" viewBox="0 0 340 70" width="340" height="70"><style>.a{fill:#de2626}</style><path class="a" d="m179.4 5.4l-21.9 21.6 5.8 5.7 21.8-21.6z"/><path class="a" d="m147.9 0.9h-8v23.2h8z"/><path fill-rule="evenodd" class="a" d="m156.2 36.9c3.7 3.7 5.5 8.2 5.5 13.4 0 5.1-1.8 9.6-5.5 13.2-3.7 3.8-8.3 5.7-13.4 5.7-5.1 0-9.6-1.9-13.2-5.7-3.8-3.6-5.6-8.1-5.6-13.2 0-5.2 1.8-9.7 5.6-13.4 3.6-3.7 8.1-5.5 13.2-5.5 5.1 0 9.7 1.8 13.4 5.5zm-3.4 13.4q-0.1-4.3-2.9-7.1c-2-2-4.3-3-7.1-2.9-2.7-0.1-5 0.9-6.9 2.9-2 1.9-3 4.2-3 7.1 0 2.6 1 5 3 7 1.9 1.9 4.1 2.9 6.9 2.9 2.8 0 5.2-1 7.1-2.9 1.9-2 2.8-4.4 2.9-7z"/><path class="a" d="m23.6 31c2.8 0 5.3 0.8 7.8 2.3 2.1 1.5 3.9 3.6 5.1 6h9.5c-1.4-5-4.1-9.2-8.2-12.3-4.2-3.3-9-5-14.2-4.9-6.5-0.1-11.9 2.2-16.4 6.8-4.7 4.6-6.9 10-6.9 16.5 0 6.5 2.2 12 6.9 16.6 4.5 4.5 9.9 6.7 16.4 6.7 5.3 0 10-1.5 14.2-4.7 4.1-3.3 6.8-7.3 8.2-12.4h-9.5c-1.2 2.5-3 4.4-5.1 6-2.5 1.5-5 2.2-7.8 2.2-4 0-7.4-1.4-10.2-4.2-2.8-2.8-4.2-6.2-4.1-10.2q-0.2-5.9 4.1-10.2c2.8-2.7 6.2-4.2 10.2-4.2z"/><path fill-rule="evenodd" class="a" d="m91.6 33.6c3 1.5 4.5 4.6 4.5 8.9v26.4h-9v-3.7c-2.8 2.4-6.7 3.6-11.7 3.7-3-0.1-5.6-1-7.4-2.5-2.1-1.9-3.1-4.5-3-7.7-0.1-4.6 1.5-7.8 4.9-9.7q3-1.7 7.9-2.4l6.9-1.1c1.4-0.6 2.1-1.6 2.1-2.8-0.1-1.4-0.5-2.5-1.5-3-1.1-0.6-2.6-0.9-4.5-0.8-2.2-0.1-3.8 0.5-4.8 1.7-0.6 0.7-1.1 1.7-1.3 3.3h-9c0.2-3.3 1-5.9 2.6-7.9 2.4-3.2 6.7-4.8 12.8-4.7 3.9-0.1 7.4 0.7 10.5 2.3zm-4.9 17l-1.8 1-4.5 1.1c-1.9 0.2-3.4 0.7-4.3 1.2-1.5 0.9-2.2 2.2-2.2 4.1 0 1.6 0.5 2.7 1.3 3.5 0.9 0.7 2 1 3.3 1 2.1 0 3.9-0.6 5.6-1.8 1.7-1.2 2.6-3.4 2.6-6.5z"/><path class="a" d="m59.7 22.1h-9.1v46.8h9.1z"/><path class="a" d="m120.8 31.6l-3.5 1c-2.4 0.9-4.6 2.6-6.4 5.1v-4.6l-8.7-0.1v35.9h9v-17.2c0-2.9 0.4-5 1.1-6.3 0.6-1.3 1.8-2.5 3.2-3.4q2.3-1.6 4.9-1.6l2.8 0.2-0.1-9.2-2.3 0.2z"/><path class="a" d="m191.2 44.1v-2.4h-23.9v8h23.9v-5.6"/><path fill-rule="evenodd" d="m280.2 67.4h-28.6c-2.8 0-4.7-2.9-3.5-5.5l5.9-12.7c0.6-1.4 2-2.3 3.5-2.3h24.2c0.8 0 1.6-0.5 2-1.2l0.4-1.1c0.4-0.8-0.2-1.7-1.1-1.7h-24.2c-0.9 0-1.5-1-1.1-1.8l1.9-4.1c0.6-1.4 2-2.3 3.6-2.3h32.6c0.9 0 1.5 1 1.1 1.8l-13.2 28.6c-0.6 1.4-2 2.3-3.5 2.3zm-4.2-8.2c0.8 0 1.6-0.5 2-1.2l0.5-1.2c0.4-0.8-0.2-1.7-1.2-1.7h-16.2c-0.5 0-0.9 0.2-1.1 0.7l-0.8 1.7c-0.4 0.8 0.2 1.7 1.1 1.7z"/><path fill-rule="evenodd" d="m249.1 34.7c1.8 0 3 1.9 2.3 3.5l-4.7 10c-2.8 6-8.8 9.8-15.5 9.8h-16.4c-0.4 0-0.8 0.2-1 0.6l-3 6.5c-0.6 1.4-2 2.3-3.5 2.3h-6.1c-0.2 0-0.3-0.2-0.3-0.4l13.8-29.9c0.7-1.5 2.2-2.4 3.8-2.4zm-30.9 15.2h14.2c2.7 0 5.1-1.6 6.2-4l0.6-1.3c0.4-0.8-0.2-1.7-1.2-1.7h-16.2c-0.5 0-0.9 0.3-1.1 0.7l-2.7 5.9c-0.1 0.2 0 0.4 0.2 0.4z"/><path  d="m338.8 34.7h-9.3c-0.8 0-1.5 0.2-2.2 0.7l-11.7 7.9-4.6-6.9c-0.8-1.1-2-1.7-3.2-1.7h-5.6c-1 0-1.6 1.1-1 1.9l9.3 13.8-7.6 16.6c-0.1 0.2 0 0.4 0.2 0.4h6.2c1.5 0 2.9-0.9 3.5-2.3l6.8-14.5 19.9-13.7c1-0.6 0.5-2.2-0.7-2.2z"/></svg>