<svg version="1.2" xmlns="http://www.w3.org/2000/svg" viewBox="0 0 136 143" width="136" height="143"><style>.a{fill:#de2626}</style><path class="a" d="m97.9 72.4h7c2.2 0 4 1.7 4 3.7h6.1c0-5.1-4.5-9.2-10.1-9.2h-0.5v-6.9h-6v6.9h-0.5c-5.6 0-10.1 4.1-10.1 9.2v1.8c0 4 2.8 7.5 6.9 8.7l11.5 3.5c1.6 0.5 2.7 1.9 2.7 3.5v1.8c0 2.1-1.8 3.7-4 3.7h-7c-2.2 0-4-1.6-4-3.7h-6.1c0 5.1 4.5 9.2 10.1 9.2h0.5v6.9h6v-6.9h0.5c5.6 0 10.1-4.1 10.1-9.2v-1.8c0-3.9-2.8-7.5-6.9-8.7l-11.5-3.5c-1.6-0.5-2.7-1.9-2.7-3.5v-1.8c0-2 1.8-3.7 4-3.7z"/><path  d="m18.8 75.4h39.2c1.6 0 2.8-0.2 2.8-1.6 0-1.4-1.2-1.6-2.8-1.6h-39.2c-1.6 0-2.8 0.2-2.8 1.6 0 1.4 1.2 1.6 2.8 1.6z"/><path  d="m18.8 88.1h39.2c1.6 0 2.8-0.1 2.8-1.6 0-1.4-1.2-1.5-2.8-1.5h-39.2c-1.6 0-2.8 0.1-2.8 1.5 0 1.5 1.2 1.6 2.8 1.6z"/><path  d="m60.8 99.3c0-1.4-1.2-1.6-2.8-1.6h-39.2c-1.6 0-2.8 0.1-2.8 1.6 0 1.4 1.2 1.6 2.8 1.6h39.2c1.6 0 2.8-0.2 2.8-1.6z"/><path fill-rule="evenodd" d="m136 84.8c0 18.2-14.1 33.1-31.9 34.5v23.5h-103.4v-130.9h63.8l-3.3 3.2h-57.3v124.5h97v-20.2c-18.8-0.3-34.1-15.7-34.1-34.6 0-19 15.3-34.4 34.1-34.6v-35.1h-17.3l2.7-3.2h17.8v38.4c17.9 1.4 32 16.3 32 34.5zm-4.9 0c0-16.4-13.3-29.8-29.8-29.8-16.4 0-29.8 13.4-29.8 29.8 0 16.5 13.4 29.8 29.8 29.8 16.5 0 29.8-13.3 29.8-29.8z"/><path class="a" d="m33 23c-0.9-1-2.4-1-3.3-0.1l-7.3 7.2c-1 1-1 2.5-0.1 3.4l21.5 21.5 43.2-45.9-9.5-9-32.6 35.2-11.9-12.3z"/><path  d="m19 107.2h-0.9v12.3h0.9z"/><path  d="m22 107.2h-1.2v12.3h1.2z"/><path  d="m23.7 107.2h-0.2v12.3h0.2z"/><path  d="m38.1 107.2h-0.2v12.3h0.2z"/><path  d="m50.9 107.2h-0.2v12.3h0.2z"/><path  d="m19.9 107.2h-0.2v12.3h0.2z"/><path  d="m40.6 107.2h-0.2v12.3h0.2z"/><path  d="m48.4 107.2h-0.1v12.3h0.1z"/><path  d="m26 107.2h-1v12.3h1z"/><path  d="m30.1 107.2h-2.4v12.3h2.4z"/><path  d="m33.5 107.2h-2.3v12.3h2.3z"/><path  d="m37 107.2h-2.4v12.3h2.4z"/><path  d="m39.5 107.2h-0.5v12.3h0.5z"/><path  d="m43.9 107.2h-2.4v12.3h2.4z"/><path  d="m47.3 107.2h-2.3v12.3h2.3z"/><path  d="m49.8 107.2h-0.4v12.3h0.4z"/><path  d="m54.2 107.2h-2.3v12.3h2.3z"/><path  d="m57.7 107.2h-2.4v12.3h2.4z"/><path  d="m61.1 107.2h-2.3v12.3h2.3z"/></svg>