<svg version="1.2" xmlns="http://www.w3.org/2000/svg" viewBox="0 0 138 180" width="138" height="180"><style>.a{fill:#3665ad}.b{fill:#67922f}.c{fill:#fff}</style><path fill-rule="evenodd" d="m137.4 32v131.7c0 7.8-7.8 15.6-15.5 15.6h-63.9c-7.7 0-15.5-7.9-15.5-15.6v-83.5h5.5v67.9h84v-107h-84v16.6h-5.5v-25.7c0-8.7 7-15.6 15.5-15.6h63.9c8.6 0 15.5 6.9 15.5 15.6zm-5.4 121.6h-84v10.1c0 4.6 5.4 10.1 10 10.1h63.9c4.6 0 10.1-5.4 10.1-10.1zm0-117.9v-3.7c0-5.6-4.6-10.1-10.1-10.1h-63.9c-5.5 0-10 4.5-10 10.1v3.7z"/><path  d="m96.3 161h-15.9v5.4h15.9z"/><path class="a" d="m54.2 66.9h-43.2c-6 0-10.8-4.9-10.8-10.9v-44.4c0-6.1 4.9-11 11-11h71.5c6 0 11 4.9 11 11v44.3c0 6.1-5 11.1-11.1 11.1h-2.7-25.7z"/><path class="b" d="m39.5 31.6l-8-7.9 6.2-6.2c0 0 0.9-0.9 1.8-0.9 0.9 0 1.7 0.9 1.7 0.9l6.3 6.2zm-8 4.8v-12.7h15.9v12.7q0 7.6-7.9 7.6-8 0-8-7.6z"/><path class="c" d="m26.9 24.1l-0.4 3.3q-1.9-0.9-3.9-0.9-1.3 0-2.1 0.6-1 0.7-1 2.2 0 1.3 2.2 2.3 3.6 1.5 4.2 1.9 2.2 1.6 2.2 4.5 0 3.1-2.2 4.6-1.9 1.4-5.2 1.4-1.9 0-4.9-0.8l0.3-3.6q2.3 1.2 4.4 1.2 1.3 0 2.3-0.6 1.2-0.7 1.2-2 0-1.5-2.2-2.5-3.8-1.7-4.1-1.9-2.3-1.6-2.3-4.4 0-3.1 2.2-4.7 1.8-1.4 4.7-1.4 2.6 0 4.6 0.8z"/><path class="c" d="m31.5 36.4v-12.7h3.9v11.5q0 5.6 4.1 5.6 4 0 4-5.6v-11.5h3.9v12.7q0 7.6-7.9 7.6-8 0-8-7.6z"/><path fill-rule="evenodd" class="c" d="m51.9 43.6v-19.9h6.8q2.5 0 4.1 0.9 2.2 1.3 2.2 4.2 0 1.8-1.1 2.9-1 1.2-2.8 1.6 2 0.2 3.2 1.5 1.3 1.2 1.3 3 0 3.4-2.5 4.8-1.8 1-4.4 1h-6.8zm3.9-16.8v4.9h1.6q3.7 0 3.7-2.4 0-1.5-1.2-2.1-0.9-0.4-2.6-0.4zm0 7.9v5.8h1.8q4.1 0 4.1-2.8 0-3-4.1-3z"/><path class="c" d="m69 43.6v-19.9h11.5v3.1h-7.6v4.9h6.9v3.2h-6.9v5.6h7.6v3.1z"/></svg>