<svg version="1.2" xmlns="http://www.w3.org/2000/svg" viewBox="0 0 76 130" width="76" height="130"><style>tspan{white-space:pre}.a{font-size: 76px;line-height: 64px;text-transform: uppercase;fill: #de271f;font-weight: 800;font-family: "A MX"}</style><path fill-rule="evenodd" d="m75.3 13v104c0 6.1-6.2 12.3-12.2 12.3h-50.5c-6 0-12.2-6.2-12.2-12.3v-61.8h4.3v49.5h66.3v-84.5h-66.3v30.8h-4.3v-38c0-6.8 5.5-12.3 12.2-12.3h50.5c6.7 0 12.2 5.5 12.2 12.3zm-4.3 96h-66.3v8c0 3.7 4.3 8 7.9 8h50.5c3.6 0 7.9-4.3 7.9-8zm0-93.1v-2.9c0-4.4-3.6-8-7.9-8h-50.5c-4.4 0-7.9 3.6-7.9 8v2.9z"/><path  d="m42.9 114.8h-12.6v4.4h12.6z"/><path  d="m45.9 57c0 6.5-5.3 11.8-11.8 11.8-6.5 0-11.8-5.3-11.8-11.8 0-6.5 5.3-11.8 11.8-11.8 6.5 0 11.8 5.3 11.8 11.8z"/><path  d="m54.1 91.1c-25 0-15.4 0-40 0 0-11 9-20 20-20 11.1 0 20 9 20 20z"/><text style="transform:matrix(.5,0,0,.5,42.666,54.807)"><tspan x="0" y="0" class="a" dx="0 -5" >+
</tspan></text></svg>